<?xml version="1.0" encoding="UTF-8"?><svg id="Layer_2" xmlns="http://www.w3.org/2000/svg" width="466.5" height="232.1" viewBox="0 0 466.5 232.1"><defs><style>.cls-1{fill:#fff;}.cls-2{fill:#1a1a1a;}</style></defs><g id="Layer_1-2"><path class="cls-1" d="M174,202.9l6.6-17.5h3.6l6.7,17.5h-4.2l-1.2-3.6h-6.5l-1.2,3.6h-4ZM180.2,196.1h4.4l-2.2-6.9-2.2,6.9Z"/><path class="cls-1" d="M192.8,202.9v-17.5h3.8v14.2h7.7v3.3h-11.5Z"/><path class="cls-1" d="M206.7,202.9v-17.5h3.8v14.2h7.7v3.3h-11.5Z"/><path class="cls-1" d="M220.6,202.9v-17.5h3.8v17.5h-3.8Z"/><path class="cls-1" d="M226.2,202.9l6.6-17.5h3.6l6.7,17.5h-4.2l-1.2-3.6h-6.5l-1.2,3.6h-4ZM232.4,196.1h4.4l-2.2-6.9-2.2,6.9Z"/><path class="cls-1" d="M245.1,202.9v-17.5h3.5l7.6,11.4v-11.4h3.7v17.5h-3.5l-7.6-11.4v11.4h-3.7Z"/><path class="cls-1" d="M276.1,199v3.1c-.6.3-1.4.5-2.2.7-.8.2-1.7.3-2.7.3-2.8,0-4.9-.8-6.4-2.4-1.4-1.6-2.2-3.9-2.2-6.9s.4-3.4,1.1-4.8c.7-1.3,1.7-2.3,3-3.1,1.3-.7,2.8-1.1,4.6-1.1s1.6,0,2.4.3c.7.2,1.4.4,1.9.7v3.2c-.9-.3-1.6-.5-2.2-.7-.6-.1-1.2-.2-1.8-.2-1.7,0-2.9.5-3.8,1.5-.9,1-1.3,2.4-1.3,4.2s.4,3.4,1.3,4.5,2.1,1.6,3.8,1.6,1.4,0,2.1-.2,1.5-.4,2.4-.7Z"/><path class="cls-1" d="M278.5,202.9v-17.5h11.4v3.2h-7.6v3.9h6.9v3.2h-6.9v4.1h7.9v3.2h-11.6Z"/><path class="cls-1" d="M6,231.8v-17.5h6.3c2.1,0,3.8.5,4.9,1.5,1.1,1,1.6,2.5,1.6,4.4s-.5,3.4-1.6,4.4c-1.1,1-2.7,1.5-4.9,1.5h-2.5v5.7h-3.7ZM11.5,217.3h-1.8v5.7h1.8c1.3,0,2.2-.2,2.7-.7.5-.4.8-1.2.8-2.2s-.3-1.8-.8-2.2c-.5-.4-1.4-.7-2.7-.7Z"/><path class="cls-1" d="M18.1,231.8l6.6-17.5h3.6l6.7,17.5h-4.2l-1.2-3.6h-6.5l-1.2,3.6h-4ZM24.3,225h4.4l-2.2-6.9-2.2,6.9Z"/><path class="cls-1" d="M37,231.8v-17.5h6.7c2.1,0,3.7.5,4.8,1.4,1.1,1,1.7,2.3,1.7,4.1s-.3,2.3-1,3.2-1.5,1.5-2.7,1.9l4.4,7h-4.1l-3.7-6.3-2.4-.6v6.9h-3.7ZM40.7,222.4h1.8c1.5,0,2.5-.2,3-.6.6-.4.9-1,.9-2s-.3-1.6-.9-2c-.6-.4-1.6-.6-3-.6h-1.8v5.1Z"/><path class="cls-1" d="M57.1,231.8v-14.3h-5.2v-3.2h14.1v3.2h-5.2v14.3h-3.8Z"/><path class="cls-1" d="M68.5,231.8v-17.5h3.5l7.6,11.4v-11.4h3.7v17.5h-3.5l-7.6-11.4v11.4h-3.7Z"/><path class="cls-1" d="M86.7,231.8v-17.5h11.4v3.2h-7.6v3.9h6.9v3.2h-6.9v4.1h7.9v3.2h-11.6Z"/><path class="cls-1" d="M101,231.8v-17.5h6.7c2.1,0,3.7.5,4.8,1.4,1.1,1,1.7,2.3,1.7,4.1s-.3,2.3-1,3.2-1.5,1.5-2.7,1.9l4.4,7h-4.1l-3.7-6.3-2.4-.6v6.9h-3.7ZM104.8,222.4h1.8c1.5,0,2.5-.2,3-.6.6-.4.9-1,.9-2s-.3-1.6-.9-2c-.6-.4-1.6-.6-3-.6h-1.8v5.1Z"/><path class="cls-1" d="M130.4,232.1c-2.6,0-4.6-.8-6.1-2.4-1.4-1.6-2.1-3.8-2.1-6.7s.7-5.1,2.1-6.7c1.4-1.6,3.4-2.4,6-2.4s4.6.8,6,2.4c1.4,1.6,2.1,3.8,2.1,6.7s-.7,5.1-2.1,6.7c-1.4,1.6-3.4,2.4-6.1,2.4ZM130.4,228.9c1.5,0,2.5-.5,3.3-1.5.7-1,1.1-2.5,1.1-4.4s-.4-3.4-1.1-4.4c-.7-1-1.8-1.5-3.3-1.5s-2.5.5-3.3,1.5c-.7,1-1.1,2.5-1.1,4.4s.4,3.4,1.1,4.4c.7,1,1.8,1.5,3.3,1.5Z"/><path class="cls-1" d="M141.4,231.8v-17.5h11.2v3.2h-7.4v4.4h6.6v3.2h-6.6v6.7h-3.8Z"/><path class="cls-1" d="M165.3,231.8v-14.3h-5.2v-3.2h14.1v3.2h-5.2v14.3h-3.8Z"/><path class="cls-1" d="M176.8,231.8v-17.5h3.8v7.1h7.2v-7.1h3.8v17.5h-3.8v-7.3h-7.2v7.3h-3.8Z"/><path class="cls-1" d="M194.9,231.8v-17.5h11.4v3.2h-7.6v3.9h6.9v3.2h-6.9v4.1h7.9v3.2h-11.6Z"/><path class="cls-1" d="M219.6,231.8v-6.8l-6.1-10.7h4.3l3.8,7.3,3.8-7.3h4.2l-6.1,10.7v6.8h-3.8Z"/><path class="cls-1" d="M231.3,231.8v-17.5h11.4v3.2h-7.6v3.9h6.9v3.2h-6.9v4.1h7.9v3.2h-11.6Z"/><path class="cls-1" d="M244.1,231.8l6.6-17.5h3.6l6.7,17.5h-4.2l-1.2-3.6h-6.5l-1.2,3.6h-4ZM250.3,225h4.4l-2.2-6.9-2.2,6.9Z"/><path class="cls-1" d="M263,231.8v-17.5h6.7c2.1,0,3.7.5,4.8,1.4,1.1,1,1.7,2.3,1.7,4.1s-.3,2.3-1,3.2c-.6.9-1.5,1.5-2.7,1.9l4.4,7h-4.1l-3.7-6.3-2.4-.6v6.9h-3.7ZM266.7,222.4h1.8c1.5,0,2.5-.2,3-.6.6-.4.9-1,.9-2s-.3-1.6-.9-2c-.6-.4-1.6-.6-3-.6h-1.8v5.1Z"/><path class="cls-1" d="M283,224.6v-3.1h12v3.1h-12Z"/><path class="cls-1" d="M302.7,231.8v-17.5h3.9l5.6,11.5,5.5-11.5h3.9v17.5h-3.7v-11.3l-4.6,9.7h-2.3l-4.6-9.5v11.2h-3.6Z"/><path class="cls-1" d="M325,231.8v-17.5h3.8v17.5h-3.8Z"/><path class="cls-1" d="M332.2,231.8v-17.5h5.9c2.9,0,5,.7,6.5,2.2,1.5,1.5,2.2,3.7,2.2,6.6s-.7,5-2.2,6.5c-1.5,1.5-3.6,2.2-6.5,2.2h-5.9ZM338,217.3h-2.1v11.4h2.1c1.6,0,2.8-.5,3.6-1.4.8-.9,1.2-2.4,1.2-4.3s-.4-3.4-1.2-4.3c-.8-.9-2-1.4-3.6-1.4Z"/><path class="cls-1" d="M349.4,231.8v-17.5h5.9c2.9,0,5,.7,6.5,2.2,1.5,1.5,2.2,3.7,2.2,6.6s-.7,5-2.2,6.5c-1.5,1.5-3.6,2.2-6.5,2.2h-5.9ZM355.2,217.3h-2.1v11.4h2.1c1.6,0,2.8-.5,3.6-1.4.8-.9,1.2-2.4,1.2-4.3s-.4-3.4-1.2-4.3c-.8-.9-2-1.4-3.6-1.4Z"/><path class="cls-1" d="M366.6,231.8v-17.5h3.8v14.2h7.7v3.3h-11.5Z"/><path class="cls-1" d="M380.5,231.8v-17.5h11.4v3.2h-7.6v3.9h6.9v3.2h-6.9v4.1h7.9v3.2h-11.6Z"/><path class="cls-1" d="M400.7,231.8v-17.5h11.4v3.2h-7.6v3.9h6.9v3.2h-6.9v4.1h7.9v3.2h-11.6Z"/><path class="cls-1" d="M413.6,231.8l6.6-17.5h3.6l6.7,17.5h-4.2l-1.2-3.6h-6.5l-1.2,3.6h-4ZM419.7,225h4.4l-2.2-6.9-2.2,6.9Z"/><path class="cls-1" d="M431.9,231.1v-3.3c1.8.7,3.6,1,5.3,1s1.8-.2,2.4-.5c.6-.3.9-.8.9-1.4s-.2-.8-.6-1c-.4-.3-1.1-.6-2.1-.9l-1.8-.6c-1.5-.5-2.6-1.2-3.3-2-.7-.8-1-1.8-1-3.1s.3-2,.8-2.8c.6-.8,1.3-1.4,2.3-1.8,1-.4,2.2-.6,3.6-.6s1.8,0,2.6.3c.9.2,1.6.4,2.3.7v3.3c-.8-.3-1.7-.6-2.5-.7s-1.6-.3-2.4-.3c-2,0-3,.6-3,1.8s.2.8.6,1.1c.4.3,1.1.6,2.1,1l1.8.6c1.6.5,2.7,1.2,3.3,2,.7.8,1,1.8,1,3.2s-.6,2.9-1.7,3.9c-1.2.9-2.8,1.4-4.9,1.4s-1.4,0-2.2-.1c-.7,0-1.4-.2-2.1-.3-.6-.1-1.1-.3-1.5-.5Z"/><path class="cls-1" d="M451,231.8v-14.3h-5.2v-3.2h14.1v3.2h-5.2v14.3h-3.8Z"/><rect class="cls-1" x="464.7" y="88.8" width="1.8" height="46.9"/><rect class="cls-1" x="13.5" y="73" width="1.8" height="78.4"/><rect class="cls-1" y="88.8" width="1.8" height="46.9"/><path class="cls-1" d="M56,110.1v-23.5h7.7c5.5,0,8.2,2.5,8.2,7.5s-2.7,7.5-8.2,7.5h-4.7v8.6h-3ZM63.1,89h-4.1v10.2h4.1c2,0,3.5-.4,4.4-1.2.9-.8,1.4-2.1,1.4-3.9s-.5-3-1.4-3.8c-.9-.8-2.4-1.2-4.4-1.2Z"/><path class="cls-1" d="M71.9,110.1l9.1-23.5h3l9.1,23.5h-3.3l-2.1-5.8h-10.5l-2.1,5.8h-3.2ZM78.1,101.7h8.6l-4.3-12-4.3,12Z"/><path class="cls-1" d="M96.7,110.1v-23.5h8c5.5,0,8.2,2.3,8.2,6.9s-1.8,5.8-5.5,6.7l6.5,9.9h-3.4l-6-9.3-4.9-.8v10.1h-3ZM99.6,98h3.6c2.4,0,4.1-.3,5.1-1,1-.7,1.5-1.8,1.5-3.5s-.2-2-.6-2.7c-.4-.7-1.1-1.1-2.1-1.4-1-.3-2.3-.4-3.9-.4h-3.6v9Z"/><path class="cls-1" d="M123.5,110.1v-20.9h-7.4v-2.6h17.9v2.6h-7.4v20.9h-3Z"/><path class="cls-1" d="M138.3,110.1v-23.5h2.8l12.5,18.6v-18.6h3v23.5h-2.8l-12.5-18.6v18.6h-3Z"/><path class="cls-1" d="M162.6,110.1v-23.5h14.5v2.6h-11.5v7.7h10.5v2.6h-10.5v8.1h11.8v2.6h-14.8Z"/><path class="cls-1" d="M182.1,110.1v-23.5h8c5.5,0,8.2,2.3,8.2,6.9s-1.8,5.8-5.5,6.7l6.5,9.9h-3.4l-6-9.3-4.9-.8v10.1h-3ZM185,98h3.6c2.4,0,4.1-.3,5.1-1,1-.7,1.5-1.8,1.5-3.5s-.2-2-.6-2.7c-.4-.7-1.1-1.1-2.1-1.4-1-.3-2.3-.4-3.9-.4h-3.6v9Z"/><path class="cls-1" d="M221.1,110.5c-3.4,0-5.9-1-7.7-3.1-1.8-2.1-2.7-5.1-2.7-9s.9-6.9,2.7-9c1.8-2.1,4.4-3.2,7.7-3.2s5.9,1,7.7,3.2c1.8,2.1,2.7,5.1,2.7,9s-.9,6.9-2.7,9c-1.8,2.1-4.4,3.1-7.7,3.1ZM221.1,107.8c2.4,0,4.2-.8,5.5-2.4,1.2-1.6,1.9-4,1.9-7.1s-.6-5.5-1.9-7.1c-1.2-1.6-3.1-2.4-5.5-2.4-4.9,0-7.4,3.2-7.4,9.5s.6,5.5,1.9,7.1c1.2,1.6,3.1,2.4,5.5,2.4Z"/><path class="cls-1" d="M236.4,110.1v-23.5h14.2v2.6h-11.2v8.2h10.1v2.6h-10.1v10.1h-3Z"/><path class="cls-1" d="M269.7,110.1v-20.9h-7.4v-2.6h17.9v2.6h-7.4v20.9h-3Z"/><path class="cls-1" d="M284.5,110.1v-23.5h3v10.1h12.4v-10.1h3v23.5h-3v-10.8h-12.4v10.8h-3Z"/><path class="cls-1" d="M308.8,110.1v-23.5h14.5v2.6h-11.5v7.7h10.5v2.6h-10.5v8.1h11.8v2.6h-14.8Z"/><path class="cls-1" d="M342.9,110.1v-9.2l-8.5-14.3h3.3l6.8,11.6,6.7-11.6h3.2l-8.5,14.3v9.2h-3Z"/><path class="cls-1" d="M357.8,110.1v-23.5h14.5v2.6h-11.5v7.7h10.5v2.6h-10.5v8.1h11.8v2.6h-14.8Z"/><path class="cls-1" d="M375,110.1l9.1-23.5h3l9.1,23.5h-3.3l-2.1-5.8h-10.5l-2.1,5.8h-3.2ZM381.3,101.7h8.6l-4.3-12-4.3,12Z"/><path class="cls-1" d="M399.8,110.1v-23.5h8c5.5,0,8.2,2.3,8.2,6.9s-1.8,5.8-5.5,6.7l6.5,9.9h-3.4l-6-9.3-4.9-.8v10.1h-3ZM402.8,98h3.6c2.4,0,4.1-.3,5.1-1,1-.7,1.5-1.8,1.5-3.5s-.2-2-.6-2.7c-.4-.7-1.1-1.1-2.1-1.4-1-.3-2.3-.4-3.9-.4h-3.6v9Z"/><path class="cls-1" d="M420.5,134.1c-5.6-5.6-10.1-3.2-13.2,0,3.2,3.2,7.7,5.6,13.2,0Z"/><path class="cls-1" d="M410.3,124.1c-7.9,0-9.4,4.9-9.4,9.4,4.5,0,9.4-1.5,9.4-9.4Z"/><path class="cls-1" d="M399.5,124.1c-7.9,0-9.4,4.9-9.4,9.4,4.5,0,9.4-1.5,9.4-9.4Z"/><path class="cls-1" d="M388.7,124.1c-7.9,0-9.4,4.9-9.4,9.4,4.5,0,9.4-1.5,9.4-9.4Z"/><path class="cls-1" d="M377.9,124.1c-7.9,0-9.4,4.9-9.4,9.4,4.5,0,9.4-1.5,9.4-9.4Z"/><path class="cls-1" d="M367.1,124.1c-7.9,0-9.4,4.9-9.4,9.4,4.5,0,9.4-1.5,9.4-9.4Z"/><path class="cls-1" d="M356.3,124.1c-7.9,0-9.4,4.9-9.4,9.4,4.5,0,9.4-1.5,9.4-9.4Z"/><path class="cls-1" d="M345.5,124.1c-7.9,0-9.4,4.9-9.4,9.4,4.5,0,9.4-1.5,9.4-9.4Z"/><path class="cls-1" d="M334.6,124.1c-7.9,0-9.4,4.9-9.4,9.4,4.5,0,9.4-1.5,9.4-9.4Z"/><path class="cls-1" d="M323.8,124.1c-7.9,0-9.4,4.9-9.4,9.4,4.5,0,9.4-1.5,9.4-9.4Z"/><path class="cls-1" d="M313,124.1c-7.9,0-9.4,4.9-9.4,9.4,4.5,0,9.4-1.5,9.4-9.4Z"/><path class="cls-1" d="M302.2,124.1c-7.9,0-9.4,4.9-9.4,9.4,4.5,0,9.4-1.5,9.4-9.4Z"/><path class="cls-1" d="M410.3,144.1c-7.9,0-9.4-4.9-9.4-9.4,4.5,0,9.4,1.5,9.4,9.4Z"/><path class="cls-1" d="M399.5,144.1c-7.9,0-9.4-4.9-9.4-9.4,4.5,0,9.4,1.5,9.4,9.4Z"/><path class="cls-1" d="M388.7,144.1c-7.9,0-9.4-4.9-9.4-9.4,4.5,0,9.4,1.5,9.4,9.4Z"/><path class="cls-1" d="M377.9,144.1c-7.9,0-9.4-4.9-9.4-9.4,4.5,0,9.4,1.5,9.4,9.4Z"/><path class="cls-1" d="M367.1,144.1c-7.9,0-9.4-4.9-9.4-9.4,4.5,0,9.4,1.5,9.4,9.4Z"/><path class="cls-1" d="M356.3,144.1c-7.9,0-9.4-4.9-9.4-9.4,4.5,0,9.4,1.5,9.4,9.4Z"/><path class="cls-1" d="M345.5,144.1c-7.9,0-9.4-4.9-9.4-9.4,4.5,0,9.4,1.5,9.4,9.4Z"/><path class="cls-1" d="M334.6,144.1c-7.9,0-9.4-4.9-9.4-9.4,4.5,0,9.4,1.5,9.4,9.4Z"/><path class="cls-1" d="M323.8,144.1c-7.9,0-9.4-4.9-9.4-9.4,4.5,0,9.4,1.5,9.4,9.4Z"/><path class="cls-1" d="M313,144.1c-7.9,0-9.4-4.9-9.4-9.4,4.5,0,9.4,1.5,9.4,9.4Z"/><path class="cls-1" d="M302.2,144.1c-7.9,0-9.4-4.9-9.4-9.4,4.5,0,9.4,1.5,9.4,9.4Z"/><path class="cls-1" d="M50.3,134.1c5.6-5.6,10.1-3.2,13.2,0-3.2,3.2-7.7,5.6-13.2,0Z"/><path class="cls-1" d="M60.5,124.1c7.9,0,9.4,4.9,9.4,9.4-4.5,0-9.4-1.5-9.4-9.4Z"/><path class="cls-1" d="M71.3,124.1c7.9,0,9.4,4.9,9.4,9.4-4.5,0-9.4-1.5-9.4-9.4Z"/><path class="cls-1" d="M82.1,124.1c7.9,0,9.4,4.9,9.4,9.4-4.5,0-9.4-1.5-9.4-9.4Z"/><path class="cls-1" d="M92.9,124.1c7.9,0,9.4,4.9,9.4,9.4-4.5,0-9.4-1.5-9.4-9.4Z"/><path class="cls-1" d="M103.7,124.1c7.9,0,9.4,4.9,9.4,9.4-4.5,0-9.4-1.5-9.4-9.4Z"/><path class="cls-1" d="M114.6,124.1c7.9,0,9.4,4.9,9.4,9.4-4.5,0-9.4-1.5-9.4-9.4Z"/><path class="cls-1" d="M125.4,124.1c7.9,0,9.4,4.9,9.4,9.4-4.5,0-9.4-1.5-9.4-9.4Z"/><path class="cls-1" d="M136.2,124.1c7.9,0,9.4,4.9,9.4,9.4-4.5,0-9.4-1.5-9.4-9.4Z"/><path class="cls-1" d="M147,124.1c7.9,0,9.4,4.9,9.4,9.4-4.5,0-9.4-1.5-9.4-9.4Z"/><path class="cls-1" d="M157.8,124.1c7.9,0,9.4,4.9,9.4,9.4-4.5,0-9.4-1.5-9.4-9.4Z"/><path class="cls-1" d="M168.6,124.1c7.9,0,9.4,4.9,9.4,9.4-4.5,0-9.4-1.5-9.4-9.4Z"/><path class="cls-1" d="M60.5,144.1c7.9,0,9.4-4.9,9.4-9.4-4.5,0-9.4,1.5-9.4,9.4Z"/><path class="cls-1" d="M71.3,144.1c7.9,0,9.4-4.9,9.4-9.4-4.5,0-9.4,1.5-9.4,9.4Z"/><path class="cls-1" d="M82.1,144.1c7.9,0,9.4-4.9,9.4-9.4-4.5,0-9.4,1.5-9.4,9.4Z"/><path class="cls-1" d="M92.9,144.1c7.9,0,9.4-4.9,9.4-9.4-4.5,0-9.4,1.5-9.4,9.4Z"/><path class="cls-1" d="M103.7,144.1c7.9,0,9.4-4.9,9.4-9.4-4.5,0-9.4,1.5-9.4,9.4Z"/><path class="cls-1" d="M114.6,144.1c7.9,0,9.4-4.9,9.4-9.4-4.5,0-9.4,1.5-9.4,9.4Z"/><path class="cls-1" d="M125.4,144.1c7.9,0,9.4-4.9,9.4-9.4-4.5,0-9.4,1.5-9.4,9.4Z"/><path class="cls-1" d="M136.2,144.1c7.9,0,9.4-4.9,9.4-9.4-4.5,0-9.4,1.5-9.4,9.4Z"/><path class="cls-1" d="M147,144.1c7.9,0,9.4-4.9,9.4-9.4-4.5,0-9.4,1.5-9.4,9.4Z"/><path class="cls-1" d="M157.8,144.1c7.9,0,9.4-4.9,9.4-9.4-4.5,0-9.4,1.5-9.4,9.4Z"/><path class="cls-1" d="M168.6,144.1c7.9,0,9.4-4.9,9.4-9.4-4.5,0-9.4,1.5-9.4,9.4Z"/><rect class="cls-1" x="451.2" y="73" width="1.8" height="78.4"/><path class="cls-1" d="M181.4,21.8h5.6c1.8,0,3.3-1.5,3.3-3.3s-1.5-3.3-3.3-3.3h-5.6c-1.8,0-3.3,1.5-3.3,3.3s1.5,3.3,3.3,3.3Z"/><path class="cls-1" d="M286.4,41.5c-.6-.7-1.6-1-2.9-1h0c-1.3,0-2.3.4-3,1.2-.7.7-1.1,1.8-1.2,3.2h8c0-1.5-.3-2.6-.9-3.3Z"/><path class="cls-1" d="M203.7,40.4h0c-1.3,0-2.3.4-3,1.2-.7.7-1.1,1.8-1.2,3.2h8c0-1.5-.3-2.6-.9-3.3-.6-.7-1.6-1-2.9-1Z"/><path class="cls-1" d="M315.5,0h-164.2v59.1H27.1v106.3h412.4V59.1h-123.9V0ZM278.1,40c1.3-1.4,3.1-2.1,5.4-2.1,4.5,0,6.8,2.5,6.8,7.5v1.9h-11c.1,1.6.6,2.9,1.4,3.6.8.8,2,1.2,3.6,1.2s1.8,0,2.5-.3c.8-.2,1.6-.5,2.5-.8h.2c0-.1,0,2.6,0,2.6h0c-.6.4-1.4.7-2.3.9-.9.2-2,.3-3.1.3-2.6,0-4.5-.7-5.8-2.2-1.3-1.5-2-3.6-2-6.4s.6-4.7,1.9-6.2ZM265.2,39.1l2.8-.9,1.1-4.4h1.9v4.4h3.4v2.6h-3.4v8.6c0,1.6.7,2.4,2.1,2.4s.5,0,.7,0c.2,0,.5,0,.7,0h.2s0,2.7,0,2.7h-.1c-.3,0-.6.1-.9.2-.3,0-.6,0-.9,0-1.6,0-2.8-.4-3.6-1.3-.8-.8-1.1-2.1-1.1-3.9v-8.6h-2.7v-1.7ZM259.1,32.9h3.7v2.8h-3.7v-2.8ZM258.2,38.2h4.7v16.2h-3.1v-13.8l-1.6-1v-1.4ZM248,13.4h7l-1.1,1.8h-5.7c-1.5,0-2.8,1-3.2,2.4h9.5l-1.2,1.8h-8.4c.4,1.4,1.7,2.4,3.2,2.4h7.1l-1.1,1.8h-6c-2.8,0-5.1-2.3-5.1-5.1s2.3-5.1,5.1-5.1ZM245.3,51.1c.6.7,1.4,1,2.5,1s1.8-.3,2.6-.9c.8-.6,1.4-1.5,1.9-2.5v-10.5h3.1v16.2h-2.2l-.4-2.5c-.6.8-1.4,1.5-2.3,2-1,.5-2.1.8-3.3.8-1.8,0-3.2-.6-4.2-1.7-1-1.1-1.5-2.8-1.5-4.9v-10h3.1v9.9c0,1.3.3,2.3.8,3ZM232.3,13.4h2v8.4h0s9.1,0,9.1,0l-1.2,1.8h-8.9c-.3,0-.5-.1-.7-.3-.2-.2-.3-.4-.3-.7v-9.2ZM234.9,32c1.1.2,2,.5,2.7,1h0v2.9h-.2c-2-1-3.9-1.4-5.7-1.4-3.2,0-4.8,1-4.8,3.2s.3,1.3.8,1.8c.6.5,1.6,1.1,3.1,1.6l2.3.9c2,.8,3.5,1.7,4.4,2.7.9,1,1.3,2.2,1.3,3.6,0,2-.7,3.6-2.2,4.8-1.4,1.1-3.4,1.7-6,1.7s-1.6,0-2.5-.2c-.8-.1-1.6-.3-2.4-.5-.7-.2-1.4-.4-1.9-.7h0v-2.9h.2c2.2,1,4.3,1.4,6.3,1.4s3-.3,3.9-1c.9-.6,1.4-1.5,1.4-2.6s-.3-1.5-.8-2c-.6-.5-1.6-1.1-3.1-1.7l-2.3-.9c-2-.8-3.4-1.6-4.3-2.6-.9-1-1.3-2.1-1.3-3.5,0-1.9.7-3.4,2.1-4.5,1.4-1.1,3.3-1.6,5.8-1.6s2,.1,3.1.4ZM224.2,13.4h7l-1.2,1.8h-5.7c-1.8,0-3.3,1.5-3.3,3.3s1.5,3.3,3.3,3.3h7l-1.1,1.8h-6c-2.8,0-5.1-2.3-5.1-5.1s2.3-5.1,5.1-5.1ZM211.6,40.8v-1.7l2.8-.9,1.1-4.4h1.9v4.4h3.4v2.6h-3.4v8.6c0,1.6.7,2.4,2.1,2.4s.5,0,.7,0c.2,0,.5,0,.7,0h.2s0,2.7,0,2.7h-.1c-.3,0-.6.1-.9.2-.3,0-.6,0-.9,0-1.6,0-2.8-.4-3.6-1.3-.8-.8-1.1-2.1-1.1-3.9v-8.6s-2.7,0-2.7,0ZM211.6,14c.3-.4.7-.6,1.2-.6s.9.2,1.2.6l6.2,9.7h-2.3l-1.1-1.8h-5.3l-1.2-1.8h0s5.2,0,5.2,0l-2.8-4.4-5.1,8h-2.3l6.2-9.6ZM200.9,50.9c.8.8,2,1.2,3.6,1.2s1.8,0,2.5-.3c.8-.2,1.6-.5,2.5-.8h.2c0-.1,0,2.6,0,2.6h0c-.6.4-1.4.7-2.3.9-.9.2-2,.3-3.1.3-2.6,0-4.5-.7-5.8-2.2-1.3-1.5-2-3.6-2-6.4s.6-4.7,1.9-6.2c1.3-1.4,3.1-2.1,5.4-2.1,4.5,0,6.8,2.5,6.8,7.5v1.9h-11c.1,1.6.6,2.9,1.4,3.6ZM193.3,13.4h8.6c1.9,0,3.4,1.5,3.4,3.4s-1.5,3.4-3.4,3.4h0s-.9,0-.9,0l3.9,3.3h-2.8l-5.8-5.1h5.5c.9,0,1.6-.7,1.6-1.7s-.7-1.6-1.6-1.6h-6.5v8.4h-2v-10.2ZM193.8,32v22.4h-3c0,0-11.5-17.1-11.5-17.1v17.1h-3.1v-22.4h3c0,0,11.5,17.1,11.5,17.1v-17.1h3.1ZM181.3,13.4h5.9c2.8,0,5.1,2.3,5.1,5.1s-2.3,5.1-5.1,5.1h-5.9c-2.8,0-5.1-2.3-5.1-5.1s2.3-5.1,5.1-5.1ZM437.7,60.9v102.7H28.8V60.9h122.5v8.6h164.2v-8.6h122.1Z"/><path class="cls-1" d="M197.3,146.3v-3.2l5.6-6.2c1.1-1.2,1.9-2.2,2.5-2.9.6-.7,1-1.4,1.3-1.9.2-.5.4-1,.4-1.5,0-1.9-1.2-2.8-3.5-2.8s-3.6.6-5.7,1.7v-4.1c1-.5,2-.9,3.1-1.2,1.1-.3,2.2-.4,3.3-.4,2.4,0,4.2.5,5.5,1.6,1.3,1.1,2,2.6,2,4.7s-.2,1.6-.5,2.5c-.3.8-.9,1.7-1.6,2.8-.7,1-1.8,2.2-3,3.6l-3.1,3.4h8.3v3.9h-14.6Z"/><path class="cls-1" d="M224.8,146.7c-2.8,0-4.9-1-6.4-3-1.5-2-2.2-4.8-2.2-8.6,0-7.5,2.9-11.3,8.6-11.3s8.6,3.8,8.6,11.3-.7,6.7-2.2,8.6c-1.5,2-3.6,3-6.4,3ZM224.8,142.8c1.3,0,2.2-.6,2.9-1.9.6-1.3.9-3.2.9-5.8s-.3-4.4-.9-5.6c-.6-1.2-1.6-1.8-2.9-1.8s-2.3.6-2.9,1.8c-.6,1.2-.9,3.1-.9,5.6s.3,4.5.9,5.8c.6,1.3,1.6,1.9,2.9,1.9Z"/><path class="cls-1" d="M237.1,146.3v-3.2l5.6-6.2c1.1-1.2,1.9-2.2,2.5-2.9.6-.7,1-1.4,1.3-1.9.2-.5.4-1,.4-1.5,0-1.9-1.2-2.8-3.5-2.8s-3.6.6-5.7,1.7v-4.1c1-.5,2-.9,3.1-1.2,1.1-.3,2.2-.4,3.3-.4,2.4,0,4.2.5,5.5,1.6,1.3,1.1,2,2.6,2,4.7s-.2,1.6-.5,2.5c-.3.8-.9,1.7-1.6,2.8-.7,1-1.8,2.2-3,3.6l-3.1,3.4h8.3v3.9h-14.6Z"/><path class="cls-1" d="M255,142.1v-3.7l10.6-14.2h4.3v13.9h3.1v4h-3.1v4.2h-4.6v-4.2h-10.3ZM265.5,136.9v-6.3l-5.5,7.5h5.4v-1.2Z"/><rect class="cls-1" x="151.2" y=".2" width="164.1" height="69.5"/><path class="cls-2" d="M250.2,21.1c-1.7,0-3.1-1.2-3.6-2.7h9.5l1.3-2h-10.8c.4-1.6,1.9-2.7,3.6-2.7h6.5l1.3-2h-8c-3.2,0-5.8,2.6-5.8,5.8s2.6,5.8,5.8,5.8h6.8l1.3-2h-8ZM223,23.1h6.8l1.3-2h-8c-2.1,0-3.7-1.7-3.7-3.7s1.7-3.7,3.7-3.7h6.5l1.3-2h-8c-3.2,0-5.8,2.6-5.8,5.8s2.6,5.8,5.8,5.8M180.9,21.1h-6.4c-2.1,0-3.7-1.7-3.7-3.7s1.7-3.7,3.7-3.7h6.4c2.1,0,3.7,1.7,3.7,3.7s-1.7,3.7-3.7,3.7M174.3,23.1h6.7c3.2,0,5.8-2.6,5.8-5.8s-2.6-5.8-5.8-5.8h-6.7c-3.2,0-5.8,2.6-5.8,5.8s2.6,5.8,5.8,5.8ZM197.7,19.4c2.2,0,3.9-1.7,3.9-3.9s-1.7-3.9-3.9-3.9h-9.7v11.5h2.2v-9.5h7.3c1,0,1.9.8,1.9,1.9s-.8,1.9-1.9,1.9h-6.3l6.6,5.8h3.2l-4.4-3.7h1M234.4,21.1v-9.5h-2.2v10.4c0,.3.1.6.3.8.2.2.5.3.8.3h10.1l1.3-2h-10.3ZM207.2,19h5.9l-3.1-5-5.7,9.1h-2.6l7-10.9c.3-.4.8-.7,1.4-.7s1.1.3,1.4.7l7,11h-2.6l-1.2-2h-6l-1.3-2h0Z"/><polygon class="cls-2" points="184.9 51.9 172 32.7 171.9 32.6 168.6 32.6 168.6 58 172.1 58 172.1 38.7 185.1 57.9 185.2 58 188.5 58 188.5 32.6 184.9 32.6 184.9 51.9"/><path class="cls-2" d="M199.8,39.3c-2.6,0-4.7.8-6.1,2.4-1.4,1.6-2.1,3.9-2.1,7s.7,5.6,2.2,7.3c1.5,1.6,3.7,2.5,6.6,2.5s2.5-.1,3.5-.3c1.1-.2,2-.6,2.6-1h.2c0-.1-.1-.2-.1-.2v-2.8h-.3c-.9.5-1.9.9-2.8,1.1-.9.2-1.9.3-2.9.3-1.8,0-3.2-.4-4.1-1.3-.9-.9-1.4-2.3-1.6-4.1h12.4v-2.2c0-5.6-2.6-8.5-7.7-8.5ZM203.1,43.4c.7.8,1,2,1,3.8h-9.1c.1-1.6.6-2.8,1.3-3.6.8-.9,2-1.3,3.4-1.3h0c1.5,0,2.7.4,3.3,1.2Z"/><path class="cls-2" d="M218.4,55.1c-.2,0-.5,0-.8,0-1.6,0-2.4-.9-2.4-2.8v-9.7h3.9v-2.9h-3.9v-5h-2.2l-1.3,4.9-3.1,1v1.9h3.1v9.8c0,2,.4,3.5,1.3,4.4.9,1,2.3,1.4,4.1,1.4s.7,0,1,0c.3,0,.7,0,1-.1h.1v-3.1h-.2c-.2,0-.5,0-.8.1Z"/><path class="cls-2" d="M233.3,43.9l-2.7-1c-1.7-.7-2.8-1.3-3.5-1.9-.6-.6-.9-1.2-.9-2,0-2.4,1.8-3.6,5.4-3.6s4.1.5,6.4,1.5h.3c0,.1,0-3.1,0-3.1h0c-.9-.5-1.9-.9-3.1-1.1-1.2-.3-2.4-.4-3.5-.4-2.7,0-4.9.6-6.5,1.8-1.6,1.2-2.4,2.9-2.4,5s.5,2.8,1.5,3.9c1,1.1,2.7,2.1,4.9,2.9l2.7,1c1.7.7,2.9,1.3,3.6,1.9.6.6.9,1.4.9,2.3s-.5,2.3-1.6,3c-1,.7-2.5,1.1-4.4,1.1s-4.7-.5-7.2-1.5h-.3c0-.1,0,2.9,0,2.9h-.2c0,.1.3.3.3.3.6.3,1.3.5,2.1.8.8.2,1.7.4,2.7.6,1,.1,1.9.2,2.8.2,2.9,0,5.2-.6,6.8-1.9,1.6-1.3,2.5-3.1,2.5-5.4s-.5-3-1.5-4.1c-1-1.1-2.7-2.2-5-3.1Z"/><path class="cls-2" d="M254.7,51.5c-.5,1.2-1.2,2.2-2.1,2.9-.9.7-1.9,1.1-2.9,1.1s-2.2-.4-2.8-1.2c-.6-.8-1-1.9-1-3.4v-11.2h-3.5v11.3c0,2.4.6,4.2,1.7,5.5,1.1,1.3,2.7,1.9,4.8,1.9s2.6-.3,3.7-.9c1-.5,1.9-1.3,2.6-2.2l.5,2.8h2.4v-18.4h-3.5v11.9Z"/><polygon class="cls-2" points="261.5 41.2 263.3 42.3 263.3 58 266.8 58 266.8 39.6 261.5 39.6 261.5 41.2"/><rect class="cls-2" x="262.6" y="33.7" width="4.2" height="3.2"/><path class="cls-2" d="M279.2,55.1c-.2,0-.5,0-.8,0-1.6,0-2.4-.9-2.4-2.8v-9.7h3.9v-2.9h-3.9v-5h-2.2l-1.3,4.9-3.1,1v1.9h3.1v9.8c0,2,.4,3.5,1.3,4.4.9,1,2.3,1.4,4.1,1.4s.7,0,1,0c.3,0,.7,0,1-.1h.1v-3.1h-.2c-.2,0-.5,0-.8.1Z"/><path class="cls-2" d="M298,47.8c0-5.6-2.6-8.5-7.7-8.5s-4.7.8-6.1,2.4c-1.4,1.6-2.1,3.9-2.1,7s.7,5.6,2.2,7.3c1.5,1.6,3.7,2.5,6.6,2.5s2.5-.1,3.5-.3c1.1-.2,2-.6,2.6-1h0v-3.1h-.3c-.9.5-1.9.9-2.8,1.1-.9.2-1.9.3-2.9.3-1.8,0-3.2-.4-4.1-1.3-.9-.9-1.4-2.3-1.6-4.1h12.4v-2.2ZM285.5,47.1c.1-1.6.6-2.8,1.3-3.6.8-.9,2-1.3,3.4-1.3h0c1.5,0,2.7.4,3.3,1.2.7.8,1,2,1,3.8h-9.1Z"/></g></svg>