<?xml version="1.0" encoding="UTF-8"?><svg id="Layer_2" xmlns="http://www.w3.org/2000/svg" width="221.4" height="49.8" xmlns:xlink="http://www.w3.org/1999/xlink" viewBox="0 0 221.4 49.8"><defs><style>.cls-1{fill:url(#linear-gradient-2);}.cls-2{fill:#2691d0;}.cls-3{fill:#231f20;}.cls-4{fill:#e57625;}.cls-5{fill:#fff;}.cls-6{fill:#4e4e4e;}.cls-7{fill:url(#linear-gradient);}</style><linearGradient id="linear-gradient" x1="28.7" y1="29.9" x2="11" y2="57.8" gradientUnits="userSpaceOnUse"><stop offset="0" stop-color="#e57625"/><stop offset="1" stop-color="#f15b27"/></linearGradient><linearGradient id="linear-gradient-2" x1="31.3" y1="10" x2="23.3" y2="22.3" gradientUnits="userSpaceOnUse"><stop offset="0" stop-color="#1172ba"/><stop offset="1" stop-color="#2691d0"/></linearGradient></defs><g id="Layer_1-2"><path class="cls-4" d="M47.3,30.4c-.2,0-.4-.1-.4-.3V13.3c0-.2.1-.3.3-.3h5.1c2.4,0,4.1.6,5.3,1.9s1.8,3.2,1.8,5.7v2c0,2.6-.6,4.6-1.8,5.9s-2.9,2-5.2,2h-5.2ZM51.1,26.8h1.2c1,0,1.8-.4,2.3-1.1.5-.7.7-1.8.7-3.2v-1.9c0-1.3-.2-2.3-.7-3-.5-.7-1.3-1-2.4-1h-1.1v10.1Z"/><path class="cls-4" d="M64.3,30.4c-.2,0-.3-.1-.3-.3v-5.7l-4.6-10.9c0-.1,0-.3,0-.3s.1-.1.3-.1h3.9c.2,0,.3,0,.3.2l1.3,4.2c.2.5.3,1.1.5,1.6.2.5.3,1.1.4,1.6h0c.1-.5.3-1.1.4-1.6.2-.5.3-1.1.5-1.6l1.2-4.2c0-.2.2-.2.3-.2h3.9c.1,0,.2,0,.3.1,0,0,0,.2,0,.3l-4.6,10.9v5.7c0,.2-.1.3-.3.3h-3.5Z"/><path class="cls-4" d="M74.3,30.4c-.2,0-.3-.1-.3-.3V13.3c0-.2.1-.3.3-.3h4.3c.2,0,.3,0,.4.2l2.5,7c.2.4.3.9.5,1.5.2.5.3,1.1.5,1.6.2.5.3,1,.4,1.4h0c0-.5,0-1-.1-1.7,0-.7,0-1.4-.1-2.1,0-.7,0-1.3,0-1.7v-5.8c0-.2.1-.3.3-.3h3.3c.2,0,.3.1.3.3v16.7c0,.2-.1.3-.3.3h-4.3c-.2,0-.3,0-.4-.2l-2.5-6.9c-.3-.7-.5-1.5-.7-2.3-.2-.8-.4-1.5-.6-2.2h0c0,.5,0,1.1.1,1.8,0,.7,0,1.4,0,2.1s0,1.3,0,1.8v5.6c0,.2-.1.3-.4.3h-3.2Z"/><path class="cls-4" d="M87.9,30.4c-.2,0-.3-.1-.2-.4l4.4-16.7c0-.2.2-.3.4-.3h4.5c.2,0,.3,0,.4.3l4.4,16.7c0,.3,0,.4-.3.4h-3.9c-.2,0-.3,0-.4-.3l-1.9-9.8c-.1-.6-.2-1.2-.3-1.8,0-.6-.2-1.2-.3-1.8h0c0,.6-.2,1.2-.3,1.8-.1.6-.2,1.2-.3,1.9l-1.9,9.7c0,.2-.1.3-.4.3h-3.8ZM92,27.2l.6-3.3h4l.6,3.3h-5.2Z"/><path class="cls-4" d="M107.8,30.6c-2.1,0-3.5-.5-4.4-1.4-.9-.9-1.2-2.3-1.1-4,0-.3.1-.4.3-.4h3.4c.2,0,.3.1.3.4,0,.6,0,1,.3,1.4s.6.5,1.2.5.9-.1,1.2-.3c.2-.2.4-.5.4-1s0-.5-.1-.7c0-.2-.2-.4-.4-.6-.2-.2-.4-.3-.7-.5l-2.9-1.7c-1.1-.7-1.9-1.4-2.3-2.1-.5-.7-.7-1.7-.7-2.8,0-1.5.5-2.6,1.3-3.4.9-.8,2.2-1.2,4-1.2s3.5.4,4.4,1.3c.9.9,1.3,2.2,1.2,3.9,0,.3-.1.5-.3.5h-3.5c-.2,0-.3-.2-.3-.5,0-.5,0-.9-.3-1.2-.2-.3-.6-.5-1.1-.5s-.8,0-1,.3c-.2.2-.3.5-.3.9,0,.4,0,.7.3,1,.2.3.5.5,1,.7l2.9,1.7c.7.4,1.3.9,1.7,1.4.4.5.7,1,.9,1.5s.3,1.2.3,2.1c0,1.6-.5,2.8-1.4,3.6-.9.8-2.4,1.2-4.4,1.2Z"/><path class="cls-4" d="M121.6,30.6c-2.1,0-3.7-.5-4.8-1.6-1.1-1.1-1.6-2.7-1.6-4.8v-4.8c0-2.1.5-3.8,1.6-4.9,1.1-1.1,2.7-1.6,4.8-1.6s3.7.5,4.8,1.6c1.1,1.1,1.6,2.7,1.6,4.9v4.8c0,2.1-.5,3.7-1.6,4.8-1.1,1.1-2.7,1.6-4.8,1.6ZM121.6,26.9c.8,0,1.3-.2,1.7-.7.4-.5.5-1.2.5-2.3v-4.5c0-1.1-.2-1.8-.5-2.3-.4-.5-.9-.7-1.7-.7s-1.3.2-1.7.7c-.4.5-.5,1.2-.5,2.3v4.5c0,1,.2,1.8.5,2.3.4.5.9.7,1.7.7Z"/><path class="cls-4" d="M130.4,30.4c-.2,0-.3-.1-.3-.3V13.3c0-.2.1-.3.3-.3h9.4c.2,0,.3.1.3.3v2.9c0,.2-.1.3-.3.3h-5.6v3.5h4.8c.2,0,.3.1.3.4v2.8c0,.2-.1.3-.3.3h-4.8v6.3c0,.2-.1.3-.3.3h-3.5Z"/><path class="cls-4" d="M145.4,30.4c-.2,0-.3-.1-.3-.3v-13.4h-3.4c-.2,0-.3-.1-.3-.3v-2.9c0-.2.1-.3.3-.3h10.9c.2,0,.3.1.3.3v2.9c0,.2-.1.3-.3.3h-3.4v13.4c0,.2-.1.3-.3.3h-3.5Z"/><path class="cls-2" d="M164.2,30.6c-1.8,0-3.2-.5-4.2-1.5-1-1-1.5-2.5-1.5-4.6v-5.7c0-2,.5-3.5,1.5-4.6,1-1,2.4-1.5,4.2-1.5s2.4.2,3.2.7c.9.5,1.5,1.2,1.9,2.1.4.9.5,2,.4,3.2,0,.2-.1.3-.3.3h-2.4c-.2,0-.3,0-.3-.3,0-1.1,0-1.9-.5-2.5s-1.1-.9-2-.9-1.6.3-2,.8c-.5.6-.7,1.4-.7,2.6v5.5c0,1.2.2,2.1.7,2.7s1.1.8,2,.8,1.7-.3,2.1-.9c.4-.6.6-1.4.5-2.5,0-.2,0-.3.2-.3h2.4c.2,0,.3.1.3.3.2,1.9-.2,3.3-1.2,4.4s-2.4,1.6-4.4,1.6Z"/><path class="cls-2" d="M172.7,30.4c-.2,0-.3,0-.3-.3V13.3c0-.2,0-.3.3-.3h2.4c0,0,.2,0,.2,0,0,0,0,.1,0,.2v14.4h5.3c.2,0,.3,0,.3.3v2.1c0,.2,0,.3-.3.3h-8Z"/><path class="cls-2" d="M187.9,30.6c-1.9,0-3.3-.5-4.2-1.5-1-1-1.4-2.5-1.4-4.4v-5.9c0-2,.5-3.4,1.4-4.4,1-1,2.4-1.5,4.2-1.5s3.3.5,4.3,1.5c1,1,1.4,2.5,1.4,4.4v5.9c0,1.9-.5,3.4-1.4,4.4-1,1-2.4,1.5-4.3,1.5ZM187.9,27.9c.9,0,1.6-.3,2.1-.8.5-.5.7-1.4.7-2.5v-5.7c0-1.2-.2-2-.7-2.6-.5-.5-1.2-.8-2.1-.8s-1.6.3-2,.8c-.5.5-.7,1.4-.7,2.6v5.7c0,1.2.2,2,.7,2.5.5.5,1.1.8,2,.8Z"/><path class="cls-2" d="M201.8,30.6c-1.9,0-3.3-.5-4.2-1.5-.9-1-1.4-2.6-1.4-4.6v-11.2c0-.2,0-.3.3-.3h2.4c.2,0,.3,0,.3.3v11.1c0,1.2.2,2.1.6,2.7s1.1.8,2,.8,1.5-.3,2-.8c.4-.6.6-1.4.6-2.7v-11.1c0-.2,0-.3.3-.3h2.4c.2,0,.3,0,.3.3v11.2c0,2-.5,3.5-1.4,4.6-.9,1-2.3,1.5-4.1,1.5Z"/><path class="cls-2" d="M210.4,30.4c-.2,0-.3,0-.3-.3V13.3c0-.2,0-.3.3-.3h4.2c2.2,0,3.9.6,5,1.8,1.1,1.2,1.7,3.1,1.7,5.5v2.1c0,2.7-.5,4.7-1.6,6-1.1,1.3-2.8,2-5,2h-4.3ZM213.1,27.7h1.5c1.3,0,2.3-.4,2.9-1.3.6-.9.9-2.2.9-3.9v-2.2c0-1.6-.3-2.8-.9-3.5-.6-.8-1.6-1.2-3-1.2h-1.4v12.1Z"/><rect class="cls-6" x="47.1" y="34.9" width="174.2" height="10.2"/><path class="cls-5" d="M51,43.4c0,0,0,0-.1,0l-1.4-6.4c0,0,0-.1,0-.1h.9c0,0,0,0,.1,0l.7,3.2c0,.3.1.7.2,1,0,.4,0,.7,0,1h0c0-.2,0-.5.1-.7s0-.5.2-.7l.6-2.5-.3-1.2s0,0,0,0,0,0,0,0h.9c0,0,0,0,.1,0l.8,3.8c0,.2,0,.5.1.7,0,.2,0,.5.1.7h0c0-.3,0-.7.1-1,0-.4,0-.7.1-1.1l.6-3.2c0,0,0,0,.1,0h1c0,0,.1,0,0,.1l-1.3,6.4c0,0,0,.1-.1.1h-1.1c0,0,0,0-.1-.1l-.4-2.2c0-.2,0-.4-.1-.7,0-.2,0-.4-.1-.7h0c0,.2,0,.4-.1.6s0,.4-.2.7l-.5,2.2c0,0,0,0-.1,0h-1.1Z"/><path class="cls-5" d="M58.3,43.4c0,0-.1,0-.1-.1v-6.4c0,0,0-.1.1-.1h.9c0,0,.1,0,.1.1v2.6h2v-2.6c0,0,0-.1.1-.1h.9c0,0,.1,0,.1.1v6.4c0,0,0,.1-.1.1h-.9c0,0-.1,0-.1-.1v-2.8h-2v2.8c0,0,0,.1-.1.1h-.9Z"/><path class="cls-5" d="M65,43.4c0,0-.1,0-.1-.1v-6.4c0,0,0-.1.1-.1h3.2c0,0,.1,0,.1.1v.8c0,0,0,.1-.1.1h-2.1v1.8h2c0,0,.1,0,.1.1v.8c0,0,0,.1-.1.1h-2v1.9h2.1c0,0,.1,0,.1.1v.8c0,0,0,.1-.1.1h-3.2Z"/><path class="cls-5" d="M70.6,43.4c0,0-.1,0-.1-.1v-6.4c0,0,0-.1.1-.1h1.7c.7,0,1.3.2,1.6.5s.5.8.5,1.5,0,.9-.3,1.2c-.2.3-.4.5-.7.6h0s1.3,2.7,1.3,2.7c0,0,0,.1,0,.1h-1c0,0,0,0-.1,0l-1.1-2.6h-.7v2.6c0,0,0,.1-.1.1h-.9ZM71.6,39.7h.6c.4,0,.6,0,.8-.3s.2-.4.2-.8,0-.6-.2-.8c-.2-.1-.4-.2-.8-.2h-.6v2Z"/><path class="cls-5" d="M76.8,43.4c0,0-.1,0-.1-.1v-6.4c0,0,0-.1.1-.1h3.2c0,0,.1,0,.1.1v.8c0,0,0,.1-.1.1h-2.1v1.8h2c0,0,.1,0,.1.1v.8c0,0,0,.1-.1.1h-2v1.9h2.1c0,0,.1,0,.1.1v.8c0,0,0,.1-.1.1h-3.2Z"/><path class="cls-5" d="M85.2,43.4c0,0-.1,0-.1-.1v-6.4c0,0,0-.1.1-.1h.9c0,0,.1,0,.1.1v6.4c0,0,0,.1-.1.1h-.9Z"/><path class="cls-5" d="M88.6,43.4c0,0-.1,0-.1-.1v-6.4c.1,0,.1-.1.2-.1h1.2c0,0,.1,0,.1,0l1.2,3.6,1.2-3.6c0,0,0,0,.1,0h1.2c0,0,.1,0,.1.1v6.4c.1,0,0,.1,0,.1h-.9c0,0-.1,0-.1-.1v-3.2c0-.3,0-.6,0-.8,0-.3,0-.5,0-.8h0c0,.2-.1.5-.2.7s-.2.5-.3.7l-1,2.7c0,0,0,0-.1,0h0c0,0,0,0-.1,0l-1-2.7c0-.2-.2-.5-.2-.7s-.2-.5-.2-.7h0c0,.2,0,.5,0,.8,0,.3,0,.5,0,.8v3.2c0,0,0,.1-.2.1h-.9Z"/><path class="cls-5" d="M95.8,43.4c0,0-.1,0,0-.1l1.7-6.4c0,0,0,0,.1,0h1.2c0,0,.1,0,.1,0l1.7,6.4c0,0,0,.1,0,.1h-1c0,0,0,0-.1,0l-.9-4.1c0-.2-.1-.5-.1-.7,0-.2,0-.5-.1-.7h0c0,.2,0,.4-.1.7,0,.2,0,.5-.1.7l-.9,4.1c0,0,0,0-.1,0h-1ZM97,41.9l.2-1h1.8l.2,1h-2.2Z"/><path class="cls-5" d="M104,43.4c-.6,0-1.1-.2-1.4-.6s-.5-.9-.5-1.7v-2.2c0-.8.2-1.3.6-1.7.4-.4.9-.6,1.6-.6s.9,0,1.2.3c.3.2.6.4.7.8.2.3.2.7.2,1.2,0,0,0,.1-.1.1h-.9c0,0-.1,0-.1-.1,0-.4,0-.6-.2-.8-.2-.2-.4-.3-.7-.3s-.6.1-.8.3-.3.5-.3,1v2.2c0,.5,0,.8.2,1,.2.2.4.3.8.3s.6-.1.8-.3c.2-.2.3-.5.3-.9v-.4h-1c0,0-.1,0-.1-.1v-.6c0,0,0-.1.1-.1h2c0,0,.1,0,.1.1v1.9c0,.3,0,.5,0,.8,0,.2,0,.4,0,.6,0,0,0,.1-.1.1h-.7c0,0,0,0-.1-.1,0,0,0-.2,0-.3,0-.1,0-.2,0-.4h0c0,.2-.2.3-.3.4-.1.1-.3.2-.5.3-.2,0-.4.1-.6.1Z"/><path class="cls-5" d="M108.8,43.4c0,0-.1,0-.1-.1v-6.4c0,0,0-.1.1-.1h.9c0,0,.1,0,.1.1v6.4c0,0,0,.1-.1.1h-.9Z"/><path class="cls-5" d="M112.3,43.4c0,0,0,0,0-.1v-6.4c0,0,0-.1.1-.1h1.3c0,0,0,0,.1,0l1.2,3.3c0,.2.1.4.2.6s.1.4.2.6c0,.2.1.4.2.5h0c0-.2,0-.4,0-.6,0-.2,0-.5,0-.7,0-.2,0-.5,0-.6v-3.1c0,0,0-.1.1-.1h.9c0,0,.1,0,.1.1v6.4c0,0,0,.1-.1.1h-1.3c0,0,0,0-.1,0l-1.2-3.2c-.1-.3-.2-.6-.3-.9,0-.3-.2-.6-.3-.9h0c0,.2,0,.4,0,.7,0,.2,0,.5,0,.7s0,.5,0,.7v2.9c0,0,0,.1-.1.1h-.9Z"/><path class="cls-5" d="M118.4,43.4c0,0-.1,0,0-.1l1.7-6.4c0,0,0,0,.1,0h1.2c0,0,.1,0,.1,0l1.7,6.4c0,0,0,.1,0,.1h-1c0,0,0,0-.1,0l-.9-4.1c0-.2-.1-.5-.1-.7,0-.2,0-.5-.1-.7h0c0,.2,0,.4-.1.7,0,.2,0,.5-.1.7l-.9,4.1c0,0,0,0-.1,0h-1ZM119.6,41.9l.2-1h1.8l.2,1h-2.2Z"/><path class="cls-5" d="M125.6,43.4c0,0-.1,0-.1-.1v-5.5h-1.3c0,0-.1,0-.1-.1v-.8c0,0,0-.1.1-.1h3.8c0,0,.1,0,.1.1v.8c0,0,0,.1-.1.1h-1.3v5.5c0,0,0,.1-.1.1h-.9Z"/><path class="cls-5" d="M130.2,43.4c0,0-.1,0-.1-.1v-6.4c0,0,0-.1.1-.1h.9c0,0,.1,0,.1.1v6.4c0,0,0,.1-.1.1h-.9Z"/><path class="cls-5" d="M135.6,43.4c-.7,0-1.3-.2-1.6-.6-.4-.4-.6-.9-.6-1.7v-2.3c0-.8.2-1.3.6-1.7.4-.4.9-.6,1.6-.6s1.3.2,1.6.6c.4.4.6.9.6,1.7v2.3c0,.7-.2,1.3-.6,1.7-.4.4-.9.6-1.6.6ZM135.6,42.4c.4,0,.6-.1.8-.3.2-.2.3-.5.3-1v-2.2c0-.4,0-.8-.3-1-.2-.2-.4-.3-.8-.3s-.6.1-.8.3-.3.5-.3,1v2.2c0,.4,0,.8.3,1s.4.3.8.3Z"/><path class="cls-5" d="M140.1,43.4c0,0,0,0,0-.1v-6.4c0,0,0-.1.1-.1h1.3c0,0,0,0,.1,0l1.2,3.3c0,.2.1.4.2.6s.1.4.2.6c0,.2.1.4.2.5h0c0-.2,0-.4,0-.6,0-.2,0-.5,0-.7,0-.2,0-.5,0-.6v-3.1c0,0,0-.1.1-.1h.9c0,0,.1,0,.1.1v6.4c0,0,0,.1-.1.1h-1.3c0,0,0,0-.1,0l-1.2-3.2c-.1-.3-.2-.6-.3-.9,0-.3-.2-.6-.3-.9h0c0,.2,0,.4,0,.7,0,.2,0,.5,0,.7s0,.5,0,.7v2.9c0,0,0,.1-.1.1h-.9Z"/><path class="cls-5" d="M149.5,43.4c0,0-.1,0-.1-.1v-6.4c.1,0,.1-.1.2-.1h1.2c0,0,.1,0,.1,0l1.2,3.6,1.2-3.6c0,0,0,0,.1,0h1.2c0,0,.1,0,.1.1v6.4c.1,0,0,.1,0,.1h-.9c0,0-.1,0-.1-.1v-3.2c0-.3,0-.6,0-.8,0-.3,0-.5,0-.8h0c0,.2-.1.5-.2.7s-.2.5-.3.7l-1,2.7c0,0,0,0-.1,0h0c0,0,0,0-.1,0l-1-2.7c0-.2-.2-.5-.2-.7s-.2-.5-.2-.7h0c0,.2,0,.5,0,.8,0,.3,0,.5,0,.8v3.2c0,0,0,.1-.2.1h-.9Z"/><path class="cls-5" d="M157.2,43.4c0,0-.1,0-.1-.1v-6.4c0,0,0-.1.1-.1h3.2c0,0,.1,0,.1.1v.8c0,0,0,.1-.1.1h-2.1v1.8h2c0,0,.1,0,.1.1v.8c0,0,0,.1-.1.1h-2v1.9h2.1c0,0,.1,0,.1.1v.8c0,0,0,.1-.1.1h-3.2Z"/><path class="cls-5" d="M162.8,43.4c0,0-.1,0-.1-.1v-6.4c0,0,0-.1.1-.1h3.2c0,0,.1,0,.1.1v.8c0,0,0,.1-.1.1h-2.1v1.8h2c0,0,.1,0,.1.1v.8c0,0,0,.1-.1.1h-2v1.9h2.1c0,0,.1,0,.1.1v.8c0,0,0,.1-.1.1h-3.2Z"/><path class="cls-5" d="M169.6,43.4c0,0-.1,0-.1-.1v-5.5h-1.3c0,0-.1,0-.1-.1v-.8c0,0,0-.1.1-.1h3.8c0,0,.1,0,.1.1v.8c0,0,0,.1-.1.1h-1.3v5.5c0,0,0,.1-.1.1h-.9Z"/><path class="cls-5" d="M175.6,43.4c-.7,0-1.2-.2-1.5-.5s-.4-.8-.4-1.4c0,0,0-.1.1-.1h.9c0,0,0,0,0,.1,0,.3,0,.6.2.7s.4.2.6.2.5,0,.6-.2c.1-.1.2-.3.2-.6s0-.3,0-.4c0-.1,0-.2-.2-.3,0,0-.2-.2-.3-.3l-1.1-.6c-.4-.2-.7-.5-.8-.8-.2-.3-.2-.6-.2-1,0-.5.2-1,.5-1.2s.8-.4,1.4-.4,1.2.2,1.5.5c.3.3.5.8.4,1.4,0,.1,0,.2-.1.2h-.9c0,0,0,0,0-.2,0-.3,0-.5-.2-.7s-.3-.2-.6-.2-.4,0-.5.2-.2.3-.2.5c0,.2,0,.4.1.5,0,.1.3.3.5.4l1.1.6c.3.2.5.3.6.5.2.2.3.4.3.6s.1.5,0,.8c0,.6-.2,1-.5,1.3-.3.3-.8.5-1.5.5Z"/><path class="cls-5" d="M182.7,43.4c0,0-.1,0-.1-.1v-6.4c0,0,0-.1.1-.1h1.7c.7,0,1.3.2,1.6.5s.5.8.5,1.5,0,.9-.3,1.2c-.2.3-.4.5-.7.6h0s1.3,2.7,1.3,2.7c0,0,0,.1,0,.1h-1c0,0,0,0-.1,0l-1.1-2.6h-.7v2.6c0,0,0,.1-.1.1h-.9ZM183.7,39.7h.6c.4,0,.6,0,.8-.3s.2-.4.2-.8,0-.6-.2-.8c-.2-.1-.4-.2-.8-.2h-.6v2Z"/><path class="cls-5" d="M188.9,43.4c0,0-.1,0-.1-.1v-6.4c0,0,0-.1.1-.1h3.2c0,0,.1,0,.1.1v.8c0,0,0,.1-.1.1h-2.1v1.8h2c0,0,.1,0,.1.1v.8c0,0,0,.1-.1.1h-2v1.9h2.1c0,0,.1,0,.1.1v.8c0,0,0,.1-.1.1h-3.2Z"/><path class="cls-5" d="M193.9,43.4c0,0-.1,0,0-.1l1.7-6.4c0,0,0,0,.1,0h1.2c0,0,.1,0,.1,0l1.7,6.4c0,0,0,.1,0,.1h-1c0,0,0,0-.1,0l-.9-4.1c0-.2-.1-.5-.1-.7,0-.2,0-.5-.1-.7h0c0,.2,0,.4-.1.7,0,.2,0,.5-.1.7l-.9,4.1c0,0,0,0-.1,0h-1ZM195.1,41.9l.2-1h1.8l.2,1h-2.2Z"/><path class="cls-5" d="M200.5,43.4c0,0-.1,0-.1-.1v-6.4c0,0,0-.1.1-.1h.9s0,0,0,0c0,0,0,0,0,0v5.5h2c0,0,.1,0,.1.1v.8c0,0,0,.1-.1.1h-3.1Z"/><path class="cls-5" d="M205.7,43.4c0,0-.1,0-.1-.1v-6.4c0,0,0-.1.1-.1h.9c0,0,.1,0,.1.1v6.4c0,0,0,.1-.1.1h-.9Z"/><path class="cls-5" d="M210.3,43.4c0,0-.1,0-.1-.1v-5.5h-1.3c0,0-.1,0-.1-.1v-.8c0,0,0-.1.1-.1h3.8c0,0,.1,0,.1.1v.8c0,0,0,.1-.1.1h-1.3v5.5c0,0,0,.1-.1.1h-.9Z"/><path class="cls-5" d="M216.1,43.4c0,0,0,0,0-.1v-2.2l-1.7-4.2s0,0,0-.1c0,0,0,0,0,0h1.1c0,0,.1,0,.1,0l.7,1.9c0,.2.1.4.2.6,0,.2.1.4.2.6h0c0-.2.1-.4.2-.6,0-.2.1-.4.2-.6l.6-1.9c0,0,0,0,.1,0h1s0,0,0,0c0,0,0,0,0,.1l-1.7,4.2v2.2c0,0,0,.1-.1.1h-.9Z"/><path class="cls-7" d="M18.7,49.8c-5.1,0-10-.8-14.7-2.7-1.2-.5-2.4-1.1-3.5-1.7-.6-.3-.6-.6-.2-1.1,4.8-6,9.5-12,14.3-18,.4-.5.7-1.4,1.3-1.4.4,0,.9.9,1.3,1.3,1,1.2,2,2.4,3.1,3.6.5.5.5.9.1,1.5-2,3-3.8,6.1-5.8,9.1-.7,1.1-.7,1.1.5,1.2,4.6.7,9.1.2,13.4-1.7,1.5-.6,2.9-1.5,4.1-2.8,2.1-2.3,2.4-4.9.7-7.6-.4-.7-.9-1.4-1.5-1.9-2.8-2.9-5.7-5.9-8.5-8.8-2-2-1.5-4.7,1-6,.5-.2.6.2.7.4,2.9,2.8,5.7,5.5,8.6,8.3,2,2,4.1,3.9,6,6,4.2,4.6,4.1,10.8-.4,15.2-2.9,2.9-6.5,4.6-10.3,5.7-3.3,1-6.8,1.3-10.3,1.3Z"/><path class="cls-1" d="M40.1,10.7c-3.8-.1-7.5,0-11.2.3-2.3.2-4.7.5-6.8,1.5-2.5,1.2-3.1,2.8-1.8,5.2.9,1.8,2.4,3.2,3.9,4.5,1.9,1.9,4.1,3.5,5.8,5.6,2.5,3.2,2.3,6.4-.7,9.1-.4.4-.7.5-1.1,0-4.4-5.5-8.8-11.1-13.1-16.6-.8-1.1-1.5-2.2-1.8-3.5-.7-2.4.3-4.6,2.6-6.1,1.8-1.2,3.8-1.8,6-2.2,6.4-1.1,12.5-.3,18.5,2.1Z"/><path class="cls-3" d="M47.7,6.8V.2h2.1c1.5,0,2.3.7,2.3,2.1s-.8,2.1-2.3,2.1h-1.3v2.4h-.8ZM49.6.9h-1.1v2.8h1.1c.6,0,1-.1,1.2-.3.3-.2.4-.6.4-1.1s-.1-.8-.4-1.1c-.3-.2-.7-.3-1.2-.3Z"/><path class="cls-3" d="M54.8,6.9c-.7,0-1.3-.2-1.6-.7-.4-.4-.6-1-.6-1.8s.2-1.4.6-1.8c.4-.4.9-.6,1.6-.6s1.3.2,1.7.6c.4.4.6,1,.6,1.8s-.2,1.4-.6,1.8-.9.7-1.7.7ZM54.8,6.2c.5,0,.8-.2,1.1-.5.2-.3.4-.7.4-1.3s-.1-1-.4-1.3c-.2-.3-.6-.5-1.1-.5s-.8.2-1,.5-.4.7-.4,1.3.1,1,.4,1.3.6.5,1,.5Z"/><path class="cls-3" d="M59,6.8l-1.4-4.7h.8l1,3.4,1-3.3h.7l1,3.4,1-3.5h.8l-1.4,4.7h-.7l-1.1-3.6-1.1,3.6h-.7Z"/><path class="cls-3" d="M68.3,6.5c-.2.1-.4.2-.7.2-.3,0-.6,0-.9,0-.7,0-1.3-.2-1.7-.6s-.6-1-.6-1.9.2-1.4.5-1.8.9-.6,1.6-.6c1.3,0,2,.7,2,2.2v.5h-3.2c0,.5.2.9.4,1.2.2.2.6.4,1.1.4s.5,0,.8,0c.2,0,.5-.1.7-.3v.7ZM66.5,2.6c-.4,0-.7.1-.9.4-.2.2-.3.6-.4,1h2.5c0-.5,0-.8-.3-1.1s-.5-.3-.9-.3Z"/><path class="cls-3" d="M69.5,6.8V2.1h.5l.2.9c.3-.6.7-.9,1.3-.9s.2,0,.3,0v.7h-.2c-.3,0-.6,0-.9.3-.2.2-.4.5-.5.8v2.8h-.8Z"/><path class="cls-3" d="M76.2,6.5c-.2.1-.4.2-.7.2-.3,0-.6,0-.9,0-.7,0-1.3-.2-1.7-.6s-.6-1-.6-1.9.2-1.4.5-1.8.9-.6,1.6-.6c1.3,0,2,.7,2,2.2v.5h-3.2c0,.5.2.9.4,1.2.2.2.6.4,1.1.4s.5,0,.8,0c.2,0,.5-.1.7-.3v.7ZM74.5,2.6c-.4,0-.7.1-.9.4-.2.2-.3.6-.4,1h2.5c0-.5,0-.8-.3-1.1s-.5-.3-.9-.3Z"/><path class="cls-3" d="M81,6.8v-.8c-.3.3-.5.5-.8.6-.3.1-.6.2-.9.2-.6,0-1.1-.2-1.5-.6-.4-.4-.5-1-.5-1.8s.2-1.4.5-1.8c.4-.4.8-.6,1.5-.6s.5,0,.8.2.5.2.7.4V0h.8v6.8h-.5ZM78.1,4.4c0,.6.1,1,.3,1.3s.5.5.9.5.5,0,.8-.2c.2-.2.4-.4.6-.6v-2.1c-.4-.4-.8-.6-1.3-.6s-.7.2-1,.5c-.2.3-.3.8-.3,1.3Z"/><path class="cls-3" d="M85.1,6.5V0h.8v2.6c.4-.4.9-.6,1.4-.6s1.1.2,1.4.6c.3.4.5,1,.5,1.8s-.2,1.4-.6,1.8c-.4.4-1,.7-1.8.7s-.6,0-.9,0c-.3,0-.6-.1-.8-.2ZM87.1,2.6c-.2,0-.4,0-.7.2-.2.1-.4.3-.6.5v2.8c.1,0,.3,0,.4,0,.1,0,.3,0,.5,0,1.1,0,1.6-.6,1.6-1.8s-.1-1-.3-1.3-.5-.4-.9-.4Z"/><path class="cls-3" d="M91.3,6.7l-1.7-4.7h.8l1.5,4.2,1.3-4.2h.8l-1.5,4.6c-.1.4-.3.8-.5,1.1-.2.3-.4.5-.6.6-.2.1-.5.3-.9.4l-.2-.7c.2,0,.4-.1.6-.2.2,0,.3-.2.4-.4.1-.2.2-.4.3-.6h0c0,0-.4,0-.4,0Z"/></g></svg>