<?xml version="1.0" encoding="UTF-8"?><svg id="Layer_2" xmlns="http://www.w3.org/2000/svg" width="492" height="110.7" xmlns:xlink="http://www.w3.org/1999/xlink" viewBox="0 0 492 110.7"><defs><style>.cls-1{fill:url(#linear-gradient-2);}.cls-2{fill:#2691d0;}.cls-3{fill:#e57625;}.cls-4{fill:#fff;}.cls-5{fill:#4e4e4e;}.cls-6{fill:url(#linear-gradient);}</style><linearGradient id="linear-gradient" x1="63.7" y1="66.3" x2="24.4" y2="128.5" gradientUnits="userSpaceOnUse"><stop offset="0" stop-color="#e57625"/><stop offset="1" stop-color="#f15b27"/></linearGradient><linearGradient id="linear-gradient-2" x1="69.5" y1="22.2" x2="51.7" y2="49.5" gradientUnits="userSpaceOnUse"><stop offset="0" stop-color="#1172ba"/><stop offset="1" stop-color="#2691d0"/></linearGradient></defs><g id="Layer_1-2"><path class="cls-3" d="M105.2,67.5c-.6,0-.8-.3-.8-.8V29.7c0-.5.3-.8.8-.8h11.3c5.2,0,9.2,1.4,11.8,4.2s4,7,4,12.6v4.4c0,5.9-1.3,10.2-4,13.1s-6.5,4.3-11.6,4.3h-11.4ZM113.5,59.5h2.7c2.3,0,4-.8,5.1-2.4,1.1-1.6,1.6-4,1.6-7.1v-4.1c0-2.9-.6-5.1-1.7-6.6-1.1-1.5-2.9-2.2-5.3-2.2h-2.5v22.5Z"/><path class="cls-3" d="M142.9,67.5c-.5,0-.7-.3-.7-.8v-12.6l-10.2-24.3c0-.3,0-.6,0-.7s.3-.3.6-.3h8.6c.5,0,.7.2.8.5l2.8,9.3c.4,1.2.7,2.4,1.1,3.7.4,1.2.7,2.4.9,3.6h.1c.3-1.2.6-2.4.9-3.6.3-1.2.7-2.4,1.1-3.6l2.8-9.3c.1-.4.4-.5.8-.5h8.6c.3,0,.5,0,.6.3,0,.2,0,.4,0,.7l-10.2,24.3v12.6c0,.5-.2.8-.7.8h-7.8Z"/><path class="cls-3" d="M165.1,67.5c-.5,0-.7-.3-.7-.8V29.7c0-.5.2-.8.7-.8h9.6c.4,0,.7.2.8.5l5.5,15.6c.4,1,.8,2.1,1.2,3.3.4,1.2.7,2.4,1.1,3.6.4,1.2.6,2.2.9,3h.1c0-1-.2-2.3-.3-3.8,0-1.5-.2-3.1-.3-4.6,0-1.5-.1-2.8-.1-3.8v-13c0-.5.2-.8.7-.8h7.3c.5,0,.8.3.8.8v37.1c0,.5-.3.8-.8.8h-9.5c-.4,0-.7-.2-.8-.5l-5.5-15.3c-.6-1.6-1.1-3.3-1.7-5-.5-1.8-1-3.4-1.4-4.8h-.2c.1,1.1.2,2.4.3,4,0,1.6.1,3.1.2,4.6s0,2.8,0,4v12.3c0,.5-.3.8-.8.8h-7.2Z"/><path class="cls-3" d="M195.4,67.5c-.6,0-.7-.3-.5-.9l9.7-37.2c.1-.4.4-.6.8-.6h9.9c.4,0,.7.2.9.6l9.7,37.2c.1.6,0,.9-.6.9h-8.6c-.4,0-.7-.2-.8-.6l-4.2-21.7c-.3-1.4-.5-2.7-.7-4.1-.2-1.4-.4-2.7-.6-4h-.2c-.2,1.3-.4,2.6-.6,4-.2,1.4-.5,2.8-.7,4.1l-4.3,21.6c0,.4-.3.6-.8.6h-8.4ZM204.5,60.4l1.3-7.3h8.8l1.4,7.3h-11.5Z"/><path class="cls-3" d="M239.7,68c-4.6,0-7.8-1-9.8-3.1-2-2-2.8-5-2.4-8.9,0-.6.3-.9.8-.9h7.6c.5,0,.7.3.6.9,0,1.3.2,2.3.8,3.1s1.4,1.2,2.7,1.2,2.1-.2,2.7-.7c.6-.5.8-1.2.8-2.2s0-1.1-.3-1.5c-.2-.5-.5-.9-.9-1.2-.4-.4-.9-.8-1.6-1.2l-6.4-3.8c-2.4-1.5-4.1-3-5.1-4.7-1-1.7-1.5-3.7-1.5-6.3,0-3.3,1-5.8,3-7.6,1.9-1.8,4.9-2.6,8.8-2.6s7.7,1,9.8,3c2.1,2,3,4.8,2.7,8.6,0,.7-.3,1.1-.8,1.1h-7.7c-.5,0-.7-.4-.6-1.1,0-1-.1-1.9-.6-2.7-.5-.8-1.3-1.2-2.4-1.2s-1.7.2-2.2.6c-.5.4-.7,1.1-.7,2,0,.9.2,1.6.6,2.2.5.6,1.2,1.1,2.1,1.6l6.4,3.7c1.6,1,2.9,2,3.9,3,1,1,1.7,2.2,2.1,3.4s.6,2.8.6,4.6c0,3.5-1,6.1-3,7.9-2,1.8-5.3,2.7-9.8,2.7Z"/><path class="cls-3" d="M270.2,68c-4.6,0-8.2-1.2-10.6-3.7-2.4-2.4-3.6-6-3.6-10.7v-10.7c0-4.8,1.2-8.4,3.6-10.8,2.4-2.4,5.9-3.7,10.6-3.7s8.2,1.2,10.6,3.7c2.4,2.4,3.6,6,3.6,10.8v10.7c0,4.7-1.2,8.3-3.6,10.7-2.4,2.4-6,3.7-10.6,3.7ZM270.2,59.9c1.7,0,3-.5,3.8-1.6.8-1.1,1.2-2.8,1.2-5.1v-9.9c0-2.4-.4-4.1-1.2-5.1-.8-1.1-2.1-1.6-3.8-1.6s-2.9.5-3.7,1.6c-.8,1.1-1.2,2.8-1.2,5.1v9.9c0,2.3.4,4,1.2,5.1.8,1.1,2.1,1.6,3.7,1.6Z"/><path class="cls-3" d="M289.7,67.5c-.5,0-.7-.3-.7-.8V29.7c0-.5.2-.8.7-.8h20.8c.5,0,.7.3.7.8v6.6c0,.5-.2.8-.7.8h-12.3v7.8h10.6c.5,0,.7.3.7.8v6.3c0,.5-.2.8-.7.8h-10.6v14.1c0,.5-.2.8-.7.8h-7.8Z"/><path class="cls-3" d="M323.1,67.5c-.5,0-.8-.3-.8-.8v-29.8h-7.5c-.5,0-.7-.3-.7-.8v-6.6c0-.5.2-.8.7-.8h24.2c.5,0,.7.3.7.8v6.6c0,.5-.2.8-.7.8h-7.5v29.8c0,.5-.2.8-.7.8h-7.7Z"/><path class="cls-2" d="M364.9,68c-4.1,0-7.2-1.1-9.4-3.3-2.2-2.2-3.2-5.6-3.2-10.1v-12.6c0-4.5,1.1-7.9,3.2-10.1,2.2-2.3,5.3-3.4,9.4-3.4s5.2.6,7.2,1.7c2,1.1,3.4,2.7,4.3,4.7.9,2,1.2,4.4.8,7.2,0,.4-.2.6-.6.6h-5.4c-.4,0-.6-.2-.6-.6.2-2.4-.2-4.3-1.1-5.6s-2.5-1.9-4.5-1.9-3.5.6-4.5,1.9c-1,1.2-1.5,3.2-1.5,5.9v12.2c0,2.7.5,4.7,1.6,5.9s2.5,1.9,4.5,1.9,3.7-.7,4.6-2.1c.9-1.4,1.3-3.2,1.1-5.5,0-.5.1-.7.5-.7h5.4c.4,0,.6.3.6.8.4,4.1-.6,7.4-2.7,9.8s-5.4,3.6-9.7,3.6Z"/><path class="cls-2" d="M383.8,67.5c-.4,0-.6-.2-.6-.6V29.5c0-.4.2-.6.6-.6h5.4c.2,0,.3,0,.4.2,0,.1.1.3.1.4v32h11.8c.4,0,.6.2.6.6v4.7c0,.4-.2.6-.6.6h-17.8Z"/><path class="cls-2" d="M417.6,68c-4.1,0-7.3-1.1-9.4-3.3-2.1-2.2-3.2-5.5-3.2-9.8v-13.2c0-4.4,1.1-7.7,3.2-9.9,2.1-2.2,5.3-3.3,9.4-3.3s7.4,1.1,9.5,3.3c2.1,2.2,3.2,5.5,3.2,9.9v13.2c0,4.3-1.1,7.6-3.2,9.8-2.1,2.2-5.3,3.3-9.5,3.3ZM417.6,62.1c2,0,3.6-.6,4.6-1.8,1-1.2,1.5-3.1,1.5-5.7v-12.6c0-2.6-.5-4.5-1.5-5.7-1-1.2-2.6-1.8-4.6-1.8s-3.5.6-4.5,1.8c-1,1.2-1.5,3.1-1.5,5.7v12.6c0,2.6.5,4.4,1.5,5.7,1,1.2,2.5,1.8,4.5,1.8Z"/><path class="cls-2" d="M448.4,68c-4.1,0-7.2-1.1-9.3-3.4-2.1-2.3-3.1-5.7-3.1-10.2v-24.8c0-.4.2-.6.6-.6h5.4c.4,0,.6.2.6.6v24.7c0,2.7.5,4.7,1.4,5.9s2.4,1.9,4.4,1.9,3.4-.6,4.3-1.9c.9-1.2,1.4-3.2,1.4-5.9v-24.7c0-.4.2-.6.6-.6h5.4c.4,0,.6.2.6.6v24.9c0,4.5-1,7.9-3.1,10.2-2.1,2.3-5.2,3.4-9.2,3.4Z"/><path class="cls-2" d="M467.7,67.5c-.4,0-.6-.2-.6-.6V29.5c0-.4.2-.6.6-.6h9.4c5,0,8.7,1.4,11.2,4.1,2.5,2.7,3.7,6.8,3.7,12.3v4.6c0,5.9-1.2,10.4-3.7,13.3-2.4,2.9-6.1,4.4-11.1,4.4h-9.6ZM473.6,61.6h3.2c3,0,5.1-1,6.5-2.9,1.4-1.9,2-4.8,2-8.8v-4.8c0-3.5-.7-6.2-2.1-7.9-1.4-1.7-3.6-2.6-6.6-2.6h-3.1v26.9Z"/><rect class="cls-5" x="104.6" y="77.6" width="387.1" height="22.7"/><path class="cls-4" d="M113.3,96.4c-.1,0-.2,0-.2-.2l-3-14.3c0-.2,0-.3.2-.3h2.1c.1,0,.2,0,.2.2l1.5,7.2c.1.8.2,1.5.3,2.3,0,.8.2,1.6.2,2.3h0c.1-.5.2-1,.3-1.6s.2-1,.3-1.5l1.3-5.6-.6-2.7c0,0,0-.2,0-.2s0,0,.2,0h2.1c.1,0,.2,0,.2.2l1.7,8.4c.1.5.2,1.1.3,1.6,0,.5.2,1.1.2,1.6h0c0-.8.2-1.5.2-2.3,0-.8.2-1.6.3-2.4l1.4-7.1c0-.1.1-.2.2-.2h2.1c.2,0,.2,0,.2.3l-3,14.3c0,.2-.1.2-.2.2h-2.5c-.1,0-.2,0-.2-.2l-1-4.9c-.1-.5-.2-1-.3-1.5,0-.5-.2-1-.2-1.5h0c0,.5-.2,1-.3,1.4s-.2,1-.3,1.5l-1.1,4.9c0,.1-.1.2-.2.2h-2.4Z"/><path class="cls-4" d="M129.7,96.4c-.2,0-.2,0-.2-.2v-14.3c0-.2,0-.2.2-.2h2.1c.2,0,.2,0,.2.2v5.8h4.5v-5.8c0-.2,0-.2.2-.2h2.1c.2,0,.2,0,.2.2v14.3c0,.2,0,.2-.2.2h-2.1c-.2,0-.2,0-.2-.2v-6.2h-4.5v6.2c0,.2,0,.2-.2.2h-2.1Z"/><path class="cls-4" d="M144.4,96.4c-.2,0-.2,0-.2-.2v-14.3c0-.2,0-.2.2-.2h7.1c.2,0,.2,0,.2.2v1.8c0,.2,0,.2-.2.2h-4.8v3.9h4.4c.2,0,.2,0,.2.2v1.7c0,.2,0,.2-.2.2h-4.4v4.1h4.8c.2,0,.2,0,.2.2v1.8c0,.2,0,.2-.2.2h-7.1Z"/><path class="cls-4" d="M156.9,96.4c-.2,0-.2,0-.2-.2v-14.3c0-.2,0-.2.2-.2h3.7c1.6,0,2.8.4,3.6,1.1s1.2,1.8,1.2,3.2-.2,1.9-.6,2.6c-.4.7-.9,1.2-1.6,1.4h0s2.8,6.1,2.8,6.1c0,.2,0,.3-.2.3h-2.3c-.1,0-.2,0-.3-.2l-2.6-5.8h-1.5v5.7c0,.2,0,.2-.2.2h-2.1ZM159.2,88.3h1.4c.8,0,1.4-.2,1.7-.6s.5-1,.5-1.7-.2-1.3-.5-1.7c-.3-.3-.9-.5-1.7-.5h-1.4v4.5Z"/><path class="cls-4" d="M170.7,96.4c-.2,0-.2,0-.2-.2v-14.3c0-.2,0-.2.2-.2h7.1c.2,0,.2,0,.2.2v1.8c0,.2,0,.2-.2.2h-4.8v3.9h4.4c.2,0,.2,0,.2.2v1.7c0,.2,0,.2-.2.2h-4.4v4.1h4.8c.2,0,.2,0,.2.2v1.8c0,.2,0,.2-.2.2h-7.1Z"/><path class="cls-4" d="M189.4,96.4c-.2,0-.2,0-.2-.2v-14.3c0-.2,0-.2.2-.2h2.1c.2,0,.2,0,.2.2v14.3c0,.2,0,.2-.2.2h-2.1Z"/><path class="cls-4" d="M196.9,96.4c-.2,0-.2,0-.2-.2l.2-14.3c0-.2,0-.2.2-.2h2.7c.1,0,.2,0,.3.2l2.7,7.9,2.7-7.9c0-.1.1-.2.3-.2h2.7c.2,0,.2,0,.2.2l.2,14.3c0,.2,0,.2-.2.2h-2c-.2,0-.2,0-.2-.2v-7.2c-.1-.6-.1-1.3-.1-1.9,0-.6,0-1.2,0-1.7h0c-.2.5-.3,1-.5,1.6s-.4,1-.6,1.5l-2.2,6c0,.1-.1.2-.2.2h-.1c-.1,0-.2,0-.2-.2l-2.2-6c-.2-.5-.4-1-.6-1.5s-.3-1-.5-1.5h0c0,.5,0,1.1,0,1.7,0,.6,0,1.2,0,1.9v7.2c-.1.2-.2.2-.3.2h-2Z"/><path class="cls-4" d="M212.8,96.4c-.2,0-.2,0-.2-.3l3.7-14.3c0-.1.1-.2.3-.2h2.7c.1,0,.2,0,.3.2l3.7,14.3c0,.2,0,.3-.2.3h-2.3c-.1,0-.2,0-.2-.2l-2.1-9.1c-.1-.5-.2-1-.3-1.5,0-.5-.2-1-.3-1.5h0c0,.5-.2,1-.3,1.5,0,.5-.2,1-.3,1.5l-2.1,9.1c0,.1,0,.2-.2.2h-2.2ZM215.6,93.2l.4-2.1h3.9l.5,2.1h-4.8Z"/><path class="cls-4" d="M231.1,96.5c-1.4,0-2.4-.4-3.1-1.3s-1.1-2.1-1.1-3.7v-5c0-1.7.4-2.9,1.3-3.8.8-.9,2-1.3,3.6-1.3s2,.2,2.7.6c.7.4,1.3,1,1.6,1.7.3.7.5,1.6.4,2.6,0,.2,0,.2-.2.2h-2.1c-.2,0-.2,0-.2-.3,0-.8,0-1.4-.4-1.9-.4-.5-.9-.7-1.7-.7s-1.4.2-1.8.7-.6,1.2-.6,2.2v4.8c0,1,.2,1.7.5,2.2.4.5.9.7,1.7.7s1.3-.2,1.7-.7c.4-.5.6-1.2.6-2.1v-.9h-2.1c-.2,0-.2,0-.2-.2v-1.4c0-.2,0-.2.2-.2h4.4c.2,0,.2,0,.2.2v4.2c0,.6,0,1.2,0,1.7,0,.5,0,.9.1,1.3,0,.2,0,.3-.2.3h-1.6c-.1,0-.2,0-.2-.2,0-.2,0-.4,0-.6,0-.2,0-.5,0-.8h0c-.2.4-.4.7-.7,1-.3.3-.7.5-1.1.7-.4.2-.9.2-1.4.2Z"/><path class="cls-4" d="M241.9,96.4c-.2,0-.2,0-.2-.2v-14.3c0-.2,0-.2.2-.2h2.1c.2,0,.2,0,.2.2v14.3c0,.2,0,.2-.2.2h-2.1Z"/><path class="cls-4" d="M249.6,96.4c-.1,0-.2,0-.2-.2v-14.3c0-.2,0-.2.2-.2h2.9c.1,0,.2,0,.2.2l2.6,7.4c.2.4.3.8.5,1.3s.3.9.5,1.4c.1.4.3.8.3,1.2h0c0-.4,0-.9,0-1.4,0-.5,0-1.1,0-1.6,0-.5,0-1,0-1.4v-6.8c0-.2,0-.2.2-.2h2c.2,0,.2,0,.2.2v14.3c0,.2,0,.2-.2.2h-2.8c-.1,0-.2,0-.3-.2l-2.6-7.2c-.3-.7-.5-1.4-.7-2.1-.2-.7-.4-1.3-.6-2h0c0,.4,0,.9,0,1.5,0,.6,0,1.1,0,1.6s0,1,0,1.5v6.5c0,.2,0,.2-.2.2h-2Z"/><path class="cls-4" d="M263.1,96.4c-.2,0-.2,0-.2-.3l3.7-14.3c0-.1.1-.2.3-.2h2.7c.1,0,.2,0,.3.2l3.7,14.3c0,.2,0,.3-.2.3h-2.3c-.1,0-.2,0-.2-.2l-2.1-9.1c-.1-.5-.2-1-.3-1.5,0-.5-.2-1-.3-1.5h0c0,.5-.2,1-.3,1.5,0,.5-.2,1-.3,1.5l-2.1,9.1c0,.1,0,.2-.2.2h-2.2ZM265.8,93.2l.4-2.1h3.9l.5,2.1h-4.8Z"/><path class="cls-4" d="M279.2,96.4c-.2,0-.2,0-.2-.2v-12.3h-3c-.2,0-.2,0-.2-.2v-1.8c0-.2,0-.2.2-.2h8.5c.2,0,.2,0,.2.2v1.8c0,.2,0,.2-.2.2h-3v12.3c0,.2,0,.2-.2.2h-2.1Z"/><path class="cls-4" d="M289.3,96.4c-.2,0-.2,0-.2-.2v-14.3c0-.2,0-.2.2-.2h2.1c.2,0,.2,0,.2.2v14.3c0,.2,0,.2-.2.2h-2.1Z"/><path class="cls-4" d="M301.4,96.5c-1.6,0-2.8-.4-3.6-1.3-.8-.9-1.2-2.1-1.2-3.8v-5.1c0-1.7.4-2.9,1.2-3.8.8-.9,2-1.3,3.6-1.3s2.8.4,3.6,1.3c.8.9,1.2,2.1,1.2,3.8v5.1c0,1.7-.4,2.9-1.2,3.8-.8.9-2,1.3-3.6,1.3ZM301.4,94.3c.8,0,1.4-.2,1.8-.7.4-.5.6-1.2.6-2.2v-4.8c0-1-.2-1.7-.6-2.2-.4-.5-1-.7-1.8-.7s-1.3.2-1.7.7-.6,1.2-.6,2.2v4.8c0,1,.2,1.7.6,2.2s1,.7,1.7.7Z"/><path class="cls-4" d="M311.4,96.4c-.1,0-.2,0-.2-.2v-14.3c0-.2,0-.2.2-.2h2.9c.1,0,.2,0,.2.2l2.6,7.4c.2.4.3.8.5,1.3s.3.9.5,1.4c.1.4.3.8.3,1.2h0c0-.4,0-.9,0-1.4,0-.5,0-1.1,0-1.6,0-.5,0-1,0-1.4v-6.8c0-.2,0-.2.2-.2h2c.2,0,.2,0,.2.2v14.3c0,.2,0,.2-.2.2h-2.8c-.1,0-.2,0-.3-.2l-2.6-7.2c-.3-.7-.5-1.4-.7-2.1-.2-.7-.4-1.3-.6-2h0c0,.4,0,.9,0,1.5,0,.6,0,1.1,0,1.6s0,1,0,1.5v6.5c0,.2,0,.2-.2.2h-2Z"/><path class="cls-4" d="M332.2,96.4c-.2,0-.2,0-.2-.2l.2-14.3c0-.2,0-.2.2-.2h2.7c.1,0,.2,0,.3.2l2.7,7.9,2.7-7.9c0-.1.1-.2.3-.2h2.7c.2,0,.2,0,.2.2l.2,14.3c0,.2,0,.2-.2.2h-2c-.2,0-.2,0-.2-.2v-7.2c-.1-.6-.1-1.3-.1-1.9,0-.6,0-1.2,0-1.7h0c-.2.5-.3,1-.5,1.6s-.4,1-.6,1.5l-2.2,6c0,.1-.1.2-.2.2h-.1c-.1,0-.2,0-.2-.2l-2.2-6c-.2-.5-.4-1-.6-1.5s-.3-1-.5-1.5h0c0,.5,0,1.1,0,1.7,0,.6,0,1.2,0,1.9v7.2c-.1.2-.2.2-.3.2h-2Z"/><path class="cls-4" d="M349.4,96.4c-.2,0-.2,0-.2-.2v-14.3c0-.2,0-.2.2-.2h7.1c.2,0,.2,0,.2.2v1.8c0,.2,0,.2-.2.2h-4.8v3.9h4.4c.2,0,.2,0,.2.2v1.7c0,.2,0,.2-.2.2h-4.4v4.1h4.8c.2,0,.2,0,.2.2v1.8c0,.2,0,.2-.2.2h-7.1Z"/><path class="cls-4" d="M361.9,96.4c-.2,0-.2,0-.2-.2v-14.3c0-.2,0-.2.2-.2h7.1c.2,0,.2,0,.2.2v1.8c0,.2,0,.2-.2.2h-4.8v3.9h4.4c.2,0,.2,0,.2.2v1.7c0,.2,0,.2-.2.2h-4.4v4.1h4.8c.2,0,.2,0,.2.2v1.8c0,.2,0,.2-.2.2h-7.1Z"/><path class="cls-4" d="M376.8,96.4c-.2,0-.2,0-.2-.2v-12.3h-3c-.2,0-.2,0-.2-.2v-1.8c0-.2,0-.2.2-.2h8.5c.2,0,.2,0,.2.2v1.8c0,.2,0,.2-.2.2h-3v12.3c0,.2,0,.2-.2.2h-2.1Z"/><path class="cls-4" d="M390.3,96.5c-1.6,0-2.7-.4-3.4-1.2s-1-1.9-.8-3.2c0-.2,0-.3.2-.3h2c.2,0,.2.1.2.3,0,.7.1,1.2.4,1.6s.8.6,1.4.6,1.1-.1,1.4-.4c.3-.3.5-.7.5-1.3s0-.6-.1-.8c0-.2-.2-.5-.4-.7-.2-.2-.5-.4-.8-.6l-2.4-1.4c-.8-.5-1.4-1.1-1.8-1.7-.4-.6-.5-1.4-.5-2.3,0-1.2.4-2.1,1-2.8s1.7-1,3.1-1,2.6.4,3.3,1.1c.7.7,1,1.8.9,3.1,0,.2-.1.3-.2.3h-2.1c-.2,0-.2-.1-.2-.3,0-.6,0-1.1-.4-1.5s-.8-.6-1.4-.6-.9.1-1.2.4-.4.6-.4,1.1c0,.5,0,.9.3,1.2.2.3.6.6,1,.9l2.4,1.4c.6.3,1,.7,1.4,1.1.3.4.6.8.7,1.3s.2,1,.2,1.7c0,1.3-.4,2.2-1.1,2.9-.7.7-1.8,1-3.4,1Z"/><path class="cls-4" d="M405.9,96.4c-.2,0-.2,0-.2-.2v-14.3c0-.2,0-.2.2-.2h3.7c1.6,0,2.8.4,3.6,1.1s1.2,1.8,1.2,3.2-.2,1.9-.6,2.6c-.4.7-.9,1.2-1.6,1.4h0s2.8,6.1,2.8,6.1c0,.2,0,.3-.2.3h-2.3c-.1,0-.2,0-.3-.2l-2.6-5.8h-1.5v5.7c0,.2,0,.2-.2.2h-2.1ZM408.2,88.3h1.4c.8,0,1.4-.2,1.7-.6s.5-1,.5-1.7-.2-1.3-.5-1.7c-.3-.3-.9-.5-1.7-.5h-1.4v4.5Z"/><path class="cls-4" d="M419.7,96.4c-.2,0-.2,0-.2-.2v-14.3c0-.2,0-.2.2-.2h7.1c.2,0,.2,0,.2.2v1.8c0,.2,0,.2-.2.2h-4.8v3.9h4.4c.2,0,.2,0,.2.2v1.7c0,.2,0,.2-.2.2h-4.4v4.1h4.8c.2,0,.2,0,.2.2v1.8c0,.2,0,.2-.2.2h-7.1Z"/><path class="cls-4" d="M430.9,96.4c-.2,0-.2,0-.2-.3l3.7-14.3c0-.1.1-.2.3-.2h2.7c.1,0,.2,0,.3.2l3.7,14.3c0,.2,0,.3-.2.3h-2.3c-.1,0-.2,0-.2-.2l-2.1-9.1c-.1-.5-.2-1-.3-1.5,0-.5-.2-1-.3-1.5h0c0,.5-.2,1-.3,1.5,0,.5-.2,1-.3,1.5l-2.1,9.1c0,.1,0,.2-.2.2h-2.2ZM433.6,93.2l.4-2.1h3.9l.5,2.1h-4.8Z"/><path class="cls-4" d="M445.6,96.4c-.2,0-.2,0-.2-.2v-14.3c0-.2,0-.2.2-.2h2.1c0,0,.1,0,.2,0,0,0,0,.1,0,.2v12.3h4.5c.2,0,.2,0,.2.2v1.8c0,.2,0,.2-.2.2h-6.8Z"/><path class="cls-4" d="M457.2,96.4c-.2,0-.2,0-.2-.2v-14.3c0-.2,0-.2.2-.2h2.1c.2,0,.2,0,.2.2v14.3c0,.2,0,.2-.2.2h-2.1Z"/><path class="cls-4" d="M467.3,96.4c-.2,0-.2,0-.2-.2v-12.3h-3c-.2,0-.2,0-.2-.2v-1.8c0-.2,0-.2.2-.2h8.5c.2,0,.2,0,.2.2v1.8c0,.2,0,.2-.2.2h-3v12.3c0,.2,0,.2-.2.2h-2.1Z"/><path class="cls-4" d="M480.2,96.4c-.1,0-.2,0-.2-.2v-4.8l-3.8-9.4c0,0,0-.2,0-.2,0,0,0,0,.2,0h2.3c.2,0,.2,0,.2.2l1.5,4.3c.2.5.3.9.4,1.3.1.4.3.9.4,1.3h0c.1-.5.3-.9.4-1.3.1-.4.3-.9.4-1.3l1.4-4.3c0-.1.1-.2.2-.2h2.3c0,0,.2,0,.2,0,0,0,0,.1,0,.2l-3.8,9.4v4.9c0,.2,0,.2-.2.2h-2.1Z"/><path class="cls-6" d="M41.6,110.7c-11.3,0-22.2-1.8-32.7-6-2.7-1.1-5.3-2.4-7.8-3.8-1.3-.8-1.4-1.3-.4-2.5,10.6-13.3,21.1-26.7,31.7-40,.9-1.1,1.6-3.1,2.9-3.1,1,0,1.9,1.9,2.8,3,2.3,2.7,4.5,5.4,6.9,8.1,1.1,1.2,1.2,2,.3,3.4-4.3,6.7-8.5,13.4-12.8,20.2-1.5,2.3-1.5,2.4,1.2,2.8,10.3,1.6,20.3.4,29.9-3.7,3.4-1.4,6.5-3.4,9.1-6.1,4.8-5.1,5.4-11,1.6-16.8-1-1.5-2.1-3-3.4-4.3-6.3-6.5-12.6-13-18.8-19.5-4.4-4.5-3.3-10.4,2.3-13.3,1-.5,1.2.4,1.6.8,6.4,6.1,12.7,12.3,19,18.4,4.5,4.4,9.1,8.6,13.4,13.3,9.4,10.3,9,24-.9,33.8-6.5,6.4-14.4,10.1-23,12.6-7.4,2.1-15.1,2.9-22.8,2.9Z"/><path class="cls-1" d="M89.1,23.7c-8.4-.3-16.7,0-25,.7-5.2.5-10.4,1.1-15.2,3.4-5.6,2.6-6.8,6.2-4,11.7,2.1,4,5.4,7,8.6,10.1,4.3,4.1,9.2,7.7,12.9,12.5,5.5,7.2,5,14.2-1.6,20.3-.9.9-1.5,1.1-2.4,0-9.7-12.3-19.5-24.6-29.2-36.8-1.9-2.3-3.2-5-4-7.9-1.5-5.4.6-10.2,5.7-13.6,4-2.7,8.5-4,13.2-4.8,14.1-2.5,27.8-.6,41,4.6Z"/><path class="cls-4" d="M106,15V.5h4.8c3.4,0,5.1,1.5,5.1,4.6s-1.7,4.6-5.1,4.6h-2.9v5.3h-1.8ZM110.3,2h-2.5v6.3h2.5c1.3,0,2.2-.3,2.7-.8.6-.5.9-1.3.9-2.4s-.3-1.9-.9-2.4c-.6-.5-1.5-.8-2.7-.8Z"/><path class="cls-4" d="M121.9,15.2c-1.6,0-2.8-.5-3.7-1.5-.9-1-1.3-2.3-1.3-4s.4-3,1.3-4c.9-1,2.1-1.4,3.7-1.4s2.8.5,3.7,1.4c.9,1,1.3,2.3,1.3,4s-.4,3-1.3,4-2.1,1.5-3.7,1.5ZM121.9,13.8c1,0,1.8-.3,2.3-1,.5-.7.8-1.7.8-3s-.3-2.3-.8-2.9c-.5-.7-1.3-1-2.3-1s-1.8.3-2.3,1-.8,1.7-.8,2.9.3,2.3.8,3,1.3,1,2.3,1Z"/><path class="cls-4" d="M131.1,15l-3.1-10.4h1.8l2.1,7.7,2.2-7.4h1.5l2.2,7.5,2.2-7.7h1.8l-3.1,10.4h-1.5l-2.4-8-2.4,8h-1.5Z"/><path class="cls-4" d="M151.7,14.5c-.4.2-.9.4-1.5.5-.6.1-1.3.2-2,.2-1.7,0-2.9-.5-3.8-1.4s-1.3-2.3-1.3-4.1.4-3.1,1.2-4,2-1.4,3.5-1.4c2.9,0,4.4,1.6,4.4,4.8v1.2h-7.2c0,1.2.4,2,.9,2.6.5.5,1.4.8,2.4.8s1.2,0,1.7-.2c.5-.1,1.1-.3,1.6-.6v1.5ZM147.9,5.8c-.9,0-1.6.3-2,.8-.5.5-.8,1.3-.8,2.3h5.5c0-1.1-.2-1.9-.6-2.4s-1.1-.7-2-.7Z"/><path class="cls-4" d="M154.5,15V4.6h1.2l.4,2c.7-1.3,1.7-2,2.9-2s.5,0,.7,0v1.6h-.5c-.8,0-1.4.2-1.9.6-.5.4-.9,1-1,1.9v6.3h-1.8Z"/><path class="cls-4" d="M169.4,14.5c-.4.2-.9.4-1.5.5-.6.1-1.3.2-2,.2-1.7,0-2.9-.5-3.8-1.4s-1.3-2.3-1.3-4.1.4-3.1,1.2-4,2-1.4,3.5-1.4c2.9,0,4.4,1.6,4.4,4.8v1.2h-7.2c0,1.2.4,2,.9,2.6.5.5,1.4.8,2.4.8s1.2,0,1.7-.2c.5-.1,1.1-.3,1.6-.6v1.5ZM165.5,5.8c-.9,0-1.6.3-2,.8-.5.5-.8,1.3-.8,2.3h5.5c0-1.1-.2-1.9-.6-2.4s-1.1-.7-2-.7Z"/><path class="cls-4" d="M180,15l-.3-1.7c-.4.6-.9,1.1-1.5,1.4-.6.3-1.3.5-2,.5-1.4,0-2.5-.5-3.2-1.4-.8-1-1.2-2.3-1.2-4s.4-3.1,1.2-4c.8-1,1.9-1.4,3.3-1.4s1.2.1,1.7.3,1.1.5,1.5,1V0h1.8v15h-1.2ZM173.6,9.8c0,1.3.2,2.2.7,2.9s1.2,1,2.1,1,1.2-.2,1.7-.5c.5-.3.9-.8,1.2-1.4v-4.6c-.8-.9-1.8-1.4-2.9-1.4s-1.7.3-2.2,1c-.5.7-.8,1.7-.8,3Z"/><path class="cls-4" d="M189,14.5V0h1.8v5.7c.9-.9,1.9-1.3,3.1-1.3s2.5.5,3.2,1.4c.7.9,1.1,2.2,1.1,4s-.5,3.1-1.4,4.1c-.9,1-2.3,1.5-4,1.5s-1.3,0-2.1-.2c-.7-.1-1.3-.3-1.8-.5ZM193.6,5.8c-.5,0-1,.1-1.5.4-.5.2-.9.6-1.3,1v6.3c.3,0,.6.1.9.2.3,0,.7,0,1.1,0,2.4,0,3.6-1.4,3.6-4.1s-.2-2.2-.7-2.9-1.2-1-2.1-1Z"/><path class="cls-4" d="M202.9,14.9l-3.8-10.3h1.9l3.3,9.3,2.9-9.3h1.8l-3.3,10.2c-.3,1-.7,1.8-1,2.4-.4.6-.8,1.1-1.4,1.4-.5.3-1.2.6-2,.8l-.4-1.5c.5-.1,1-.3,1.4-.5.4-.2.7-.5,1-.9.3-.4.5-.8.7-1.4h0c0-.1-1-.1-1-.1Z"/></g></svg>