<?xml version="1.0" encoding="UTF-8"?><svg id="Layer_1" xmlns="http://www.w3.org/2000/svg" width="1920" height="70" xmlns:xlink="http://www.w3.org/1999/xlink" viewBox="0 0 1920 70"><defs><style>.cls-1{fill:#fff;}.cls-2{fill:none;}.cls-3{fill:#d0e5ed;}.cls-4{fill:#94bfce;}.cls-5{fill:#e2c06b;}.cls-6{fill:#264759;}.cls-7{clip-path:url(#clippath);}</style><clipPath id="clippath"><rect class="cls-2" x="360.9" y="18.8" width="103.3" height="32.5"/></clipPath></defs><path class="cls-1" d="M97.4,54.2l3.2-8.2h1.1l3.2,8.2h-1.2l-.7-2h-3.7l-.7,2h-1.1ZM99.6,51.3h3l-1.5-4.2-1.5,4.2Z"/><path class="cls-1" d="M105.7,54.2v-7.7l-.6-.4v-.4h1.6v8.5h-1Z"/><path class="cls-1" d="M108.6,54.2v-7.7l-.6-.4v-.4h1.6v8.5h-1Z"/><path class="cls-1" d="M111.4,54.2v-5.1l-.6-.4v-.4h1.6v5.9h-1ZM111.1,46.9v-.9h1.2v.9h-1.2Z"/><path class="cls-1" d="M117.7,54.2l-.2-.9c-.5.7-1.1,1.1-2,1.1s-1.1-.2-1.4-.5c-.4-.3-.5-.8-.5-1.3s.2-1.1.6-1.4c.4-.3,1-.5,1.8-.5h1.4v-.4c0-.4,0-.7-.3-.9s-.5-.3-.9-.3-.6,0-.9,0-.7.2-1.1.3v-.8c.3-.1.6-.2,1-.3.4,0,.7-.1,1-.1,1.5,0,2.2.7,2.2,2v4h-.7ZM115.7,53.5c.3,0,.7,0,1-.3.3-.2.5-.5.7-.8v-1.1h-1.3c-.5,0-.9,0-1.1.3-.2.2-.4.5-.4.9s0,.6.3.8c.2.2.5.3.8.3Z"/><path class="cls-1" d="M120.1,54.2v-5.9h.7l.2,1c.2-.4.6-.6.9-.8s.8-.3,1.2-.3c.7,0,1.2.2,1.6.6s.5,1,.5,1.8v3.6h-1v-3.6c0-1-.4-1.5-1.3-1.5s-.7.1-1,.3c-.3.2-.5.5-.7.9v3.9h-1Z"/><path class="cls-1" d="M131,53.1v.8c-.5.3-1.1.4-1.8.4s-1.6-.3-2.1-.8c-.5-.5-.7-1.3-.7-2.3s.2-1.7.7-2.2c.5-.5,1.2-.8,2.1-.8s1.1.1,1.5.4v.8c-.5-.2-1-.4-1.4-.4-1.3,0-1.9.7-1.9,2.2s.1,1.4.4,1.7c.3.4.8.6,1.4.6s.5,0,.8-.1c.3,0,.5-.2.9-.3Z"/><path class="cls-1" d="M136.7,53.9c-.2.1-.5.2-.8.3s-.7.1-1.1.1c-.9,0-1.6-.3-2.1-.8-.5-.5-.7-1.3-.7-2.3s.2-1.7.7-2.2c.5-.5,1.1-.8,2-.8,1.6,0,2.5.9,2.5,2.7v.7h-4.1c0,.7.2,1.1.5,1.5.3.3.8.5,1.4.5s.7,0,1-.1c.3,0,.6-.2.9-.3v.9ZM134.5,49c-.5,0-.9.1-1.2.4s-.4.7-.5,1.3h3.1c0-.6-.1-1.1-.3-1.3-.2-.3-.6-.4-1.1-.4Z"/><path class="cls-1" d="M141.1,54.2v-8.2h2.7c1.9,0,2.9.9,2.9,2.6s-1,2.6-2.9,2.6h-1.6v3h-1ZM143.5,46.8h-1.4v3.5h1.4c.7,0,1.2-.1,1.5-.4.3-.3.5-.7.5-1.3s-.2-1.1-.5-1.3c-.3-.3-.8-.4-1.5-.4Z"/><path class="cls-1" d="M151.4,54.2l-.2-.9c-.5.7-1.1,1.1-2,1.1s-1.1-.2-1.4-.5-.5-.8-.5-1.3.2-1.1.6-1.4c.4-.3,1-.5,1.8-.5h1.4v-.4c0-.4,0-.7-.3-.9-.2-.2-.5-.3-.9-.3s-.6,0-.9,0c-.3,0-.7.2-1.1.3v-.8c.3-.1.6-.2,1-.3.4,0,.7-.1,1-.1,1.5,0,2.2.7,2.2,2v4h-.7ZM149.4,53.5c.3,0,.7,0,1-.3.3-.2.5-.5.7-.8v-1.1h-1.3c-.5,0-.9,0-1.1.3-.2.2-.4.5-.4.9s0,.6.3.8c.2.2.5.3.8.3Z"/><path class="cls-1" d="M153.7,54.2v-5.9h.7l.2,1.1c.4-.7.9-1.1,1.6-1.1s.3,0,.4,0v.9h-.3c-.4,0-.8.1-1.1.4-.3.2-.5.6-.6,1v3.6h-1Z"/><path class="cls-1" d="M158.4,52.4v-3.3h-1v-.5l1-.3.4-1.6h.6v1.6h1.3v.8h-1.3v3.3c0,.6.3,1,.8,1s.2,0,.3,0c0,0,.2,0,.2,0v.9c-.1,0-.2,0-.3,0-.1,0-.2,0-.3,0-.6,0-1-.2-1.3-.5-.3-.3-.4-.8-.4-1.4Z"/><path class="cls-1" d="M162,54.2v-5.9h.7l.2,1c.2-.4.6-.6.9-.8s.8-.3,1.2-.3c.7,0,1.2.2,1.6.6s.5,1,.5,1.8v3.6h-1v-3.6c0-1-.4-1.5-1.3-1.5s-.7.1-1,.3c-.3.2-.5.5-.7.9v3.9h-1Z"/><path class="cls-1" d="M173.2,53.9c-.2.1-.5.2-.8.3-.4,0-.7.1-1.1.1-.9,0-1.6-.3-2.1-.8-.5-.5-.7-1.3-.7-2.3s.2-1.7.7-2.2c.5-.5,1.1-.8,2-.8,1.6,0,2.5.9,2.5,2.7v.7h-4.1c0,.7.2,1.1.5,1.5.3.3.8.5,1.4.5s.7,0,1-.1c.3,0,.6-.2.9-.3v.9ZM171,49c-.5,0-.9.1-1.2.4s-.4.7-.5,1.3h3.1c0-.6-.1-1.1-.3-1.3-.2-.3-.6-.4-1.1-.4Z"/><path class="cls-1" d="M174.8,54.2v-5.9h.7l.2,1.1c.4-.7.9-1.1,1.6-1.1s.3,0,.4,0v.9h-.3c-.4,0-.8.1-1.1.4-.3.2-.5.6-.6,1v3.6h-1Z"/><path class="cls-1" d="M134.8,20.1c-.8,0-1.4-.5-1.7-1.3h4.4l.6-.9h-5c.2-.7.9-1.3,1.7-1.3h3l.6-.9h-3.7c-1.5,0-2.7,1.2-2.7,2.7s1.2,2.7,2.7,2.7h3.2l.6-.9h-3.7ZM122.3,21.1h3.2l.6-.9h-3.7c-1,0-1.7-.8-1.7-1.7s.8-1.7,1.7-1.7h3l.6-.9h-3.7c-1.5,0-2.7,1.2-2.7,2.7s1.2,2.7,2.7,2.7M102.9,20.1h-2.9c-1,0-1.7-.8-1.7-1.7s.8-1.7,1.7-1.7h2.9c1,0,1.7.8,1.7,1.7s-.8,1.7-1.7,1.7M99.9,21.1h3.1c1.5,0,2.6-1.2,2.6-2.7s-1.2-2.7-2.7-2.7h-3.1c-1.5,0-2.7,1.2-2.7,2.7s1.2,2.7,2.7,2.7ZM110.7,19.3c1,0,1.8-.8,1.8-1.8s-.8-1.8-1.8-1.8h-4.5v5.3h1v-4.4h3.4c.5,0,.9.4.9.9s-.4.9-.9.9h-2.9l3,2.7h1.5l-2-1.7h.5M127.6,20.1v-4.4h-1v4.8c0,.1,0,.3.2.4,0,.1.2.2.4.2h4.7l.6-.9h-4.8ZM115.1,19.2h2.7l-1.4-2.3-2.6,4.2h-1.2l3.2-5c.1-.2.4-.3.6-.3s.5.1.6.3l3.2,5h-1.2l-.6-.9h-2.8l-.6-.9h0Z"/><polygon class="cls-1" points="104.8 34.3 98.8 25.4 98.8 25.4 97.3 25.4 97.3 37.1 98.9 37.1 98.9 28.2 104.9 37.1 104.9 37.1 106.4 37.1 106.4 25.4 104.8 25.4 104.8 34.3"/><path class="cls-1" d="M111.6,28.5c-1.2,0-2.2.4-2.8,1.1-.7.8-1,1.8-1,3.2s.3,2.6,1,3.3c.7.8,1.7,1.1,3,1.1s1.1,0,1.6-.2c.5-.1.9-.3,1.2-.4h0c0,0,0-.1,0-.1v-1.3h-.1c-.4.3-.9.4-1.3.5-.4,0-.9.1-1.3.1-.8,0-1.5-.2-1.9-.6-.4-.4-.6-1-.7-1.9h5.7v-1c0-2.6-1.2-3.9-3.5-3.9ZM113.1,30.4c.3.3.5.9.5,1.7h-4.2c0-.7.3-1.3.6-1.7.4-.4.9-.6,1.6-.6h0c.7,0,1.2.2,1.5.5Z"/><path class="cls-1" d="M120.2,35.7c-.1,0-.2,0-.4,0-.7,0-1.1-.4-1.1-1.3v-4.5h1.8v-1.3h-1.8v-2.3h-1l-.6,2.3-1.4.5v.9h1.4v4.5c0,.9.2,1.6.6,2,.4.4,1,.7,1.9.7s.3,0,.5,0c.2,0,.3,0,.5,0h0v-1.4h0c-.1,0-.2,0-.3,0Z"/><path class="cls-1" d="M127.1,30.6l-1.2-.5c-.8-.3-1.3-.6-1.6-.9-.3-.3-.4-.6-.4-.9,0-1.1.8-1.7,2.5-1.7s1.9.2,2.9.7h.1c0,0,0-1.4,0-1.4h0c-.4-.2-.9-.4-1.4-.5-.6-.1-1.1-.2-1.6-.2-1.3,0-2.3.3-3,.8-.7.6-1.1,1.3-1.1,2.3s.2,1.3.7,1.8c.5.5,1.2.9,2.3,1.4l1.2.5c.8.3,1.3.6,1.6.9.3.3.4.6.4,1.1s-.2,1-.7,1.4c-.5.3-1.2.5-2,.5s-2.2-.2-3.3-.7h-.1s0,1.3,0,1.3h-.1c0,0,.2.1.2.1.3.1.6.2,1,.4.4.1.8.2,1.2.3.4,0,.9,0,1.3,0,1.3,0,2.4-.3,3.1-.9.8-.6,1.1-1.4,1.1-2.5s-.2-1.4-.7-1.9c-.5-.5-1.2-1-2.3-1.4Z"/><path class="cls-1" d="M136.9,34.1c-.2.5-.5,1-1,1.3-.4.3-.9.5-1.3.5s-1-.2-1.3-.5c-.3-.4-.4-.9-.4-1.6v-5.2h-1.6v5.2c0,1.1.3,1.9.8,2.5.5.6,1.3.9,2.2.9s1.2-.1,1.7-.4c.5-.2.9-.6,1.2-1l.2,1.3h1.1v-8.5h-1.6v5.5Z"/><polygon class="cls-1" points="140 29.4 140.9 29.9 140.9 37.1 142.5 37.1 142.5 28.7 140 28.7 140 29.4"/><rect class="cls-1" x="140.5" y="25.9" width="1.9" height="1.5"/><path class="cls-1" d="M148.2,35.7c-.1,0-.2,0-.4,0-.7,0-1.1-.4-1.1-1.3v-4.5h1.8v-1.3h-1.8v-2.3h-1l-.6,2.3-1.4.5v.9h1.4v4.5c0,.9.2,1.6.6,2,.4.4,1,.7,1.9.7s.3,0,.5,0c.2,0,.3,0,.5,0h0v-1.4h0c-.1,0-.2,0-.3,0Z"/><path class="cls-1" d="M156.8,32.4c0-2.6-1.2-3.9-3.5-3.9s-2.2.4-2.8,1.1c-.7.8-1,1.8-1,3.2s.3,2.6,1,3.3c.7.8,1.7,1.1,3,1.1s1.1,0,1.6-.2c.5-.1.9-.3,1.2-.4h0v-1.4h-.1c-.4.3-.9.4-1.3.5-.4,0-.9.1-1.3.1-.8,0-1.5-.2-1.9-.6-.4-.4-.6-1-.7-1.9h5.7v-1ZM151.1,32.1c0-.7.3-1.3.6-1.7.4-.4.9-.6,1.6-.6h0c.7,0,1.2.2,1.5.5.3.3.5.9.5,1.7h-4.2Z"/><g class="cls-7"><path class="cls-1" d="M451.8,51.2c-6.9,0-12.4-5.6-12.4-12.4s5.6-12.4,12.4-12.4,12.4,5.6,12.4,12.4h0c0,6.9-5.6,12.4-12.4,12.4ZM451.8,46.1c4,0,7.3-3.3,7.3-7.3s-3.3-7.3-7.3-7.3-7.3,3.3-7.3,7.3,3.3,7.3,7.3,7.3ZM425.8,51.2c-6.9,0-12.4-5.6-12.4-12.4s5.6-12.4,12.4-12.4,12.4,5.6,12.4,12.4h0c0,6.9-5.6,12.4-12.4,12.4ZM425.8,46.1c4,0,7.3-3.3,7.3-7.3s-3.3-7.3-7.3-7.3-7.3,3.3-7.3,7.3,3.3,7.3,7.3,7.3ZM412.2,38.6c0,6.9-5.6,12.6-12.4,12.6s-12.4-5.6-12.4-12.6,5.1-12.3,12.4-12.3,5.2.6,7.3,2.1v-7.2c0-1.4,1.2-2.5,2.6-2.5s2.6,1.1,2.6,2.5v17.4ZM399.8,46.1c4,0,7.3-3.3,7.3-7.3s-3.3-7.3-7.3-7.3-7.3,3.3-7.3,7.3,3.3,7.3,7.3,7.3Z"/><path class="cls-1" d="M373.8,51.2c-6.9,0-12.4-5.6-12.4-12.4s5.6-12.4,12.4-12.4,12.4,5.6,12.4,12.4h0c0,6.9-5.6,12.4-12.4,12.4ZM373.8,46.1c4,0,7.3-3.3,7.3-7.3s-3.3-7.3-7.3-7.3-7.3,3.3-7.3,7.3,3.3,7.3,7.3,7.3Z"/></g><path class="cls-1" d="M655.4,16.9c8,.8,12.1,10.6,6.9,16.8-3.5,4.3-8.1,3.9-13.2,3.8v15.3h-5.2v-15.3h-6.1c-.2,0-1.3.5-1.6.6-3.3,1.9-3.3,6.8,0,8.8s1.5.7,1.7.7h2.8v5.2h-3.3c-1.9,0-5-1.9-6.3-3.3-5.6-6.1-1.8-16.6,6.4-17.2,5.3-.4,11.2.4,16.5,0s6.4-10.1.3-10.3-5.3,2.1-5.3,4.4v2.7h-5.2v-3.2c0-4.3,5-8.7,9.2-9.1.6,0,1.7,0,2.3,0Z"/><polygon class="cls-1" points="706.6 52.4 709.4 45.5 704 32.2 708 32.2 711.3 41.5 715.1 32.2 718.7 32.2 710.3 52.4 706.6 52.4"/><path class="cls-1" d="M668.5,33c.2,0,1.5,0,1.5,0v-3.8c.5,0,3.8-.2,3.8.2v3.6h2.9v3.1h-2.9v6.8c0,0,.6.5.7.5h2.2v3.1h-3.6c-.4,0-1.8-.8-2.1-1.1s-1-1.6-1-1.9v-7.4c0,0-1.3,0-1.5,0v-3.1Z"/><path class="cls-1" d="M733.5,46.4v-1.8c-4.9,4.9-11,.7-10.6-5.7s6.5-8.4,10.6-4.2v-1.7h3.8v13.5h-3.8ZM729.3,35.6c-3.6.6-3.7,7.1.2,7.7,5.6,1,5.7-8.7-.2-7.7Z"/><path class="cls-1" d="M699.1,46.4v-1.7c-5.8,5.3-12.3-1-10.1-7.8,1.3-4.1,6.4-5.9,9.7-2.9s.2.5.4.5v-1.7h3.8v13.5h-3.8ZM698.1,42.4c2-2,1.2-6.5-1.9-6.8-5.4-.6-5.3,7.4-.9,7.8s2.1-.3,2.8-1Z"/><path class="cls-1" d="M683.5,32.2v2.3l.9-1c1-.8,2.2-1.1,3.5-1v3.5c-1.1,0-3.3,0-3.9,1.2s-.5,1.6-.5,1.8v7.4h-3.8v-14.2h3.8Z"/><rect class="cls-1" x="740.2" y="33" width="3.8" height="13.5"/><path class="cls-1" d="M742.4,23.5c0,1.6,1.3,3.2,2.8,3.7l1.5.4c-2.3,0-3.7,1.4-4.3,3.6s.2.5-.3.4c0-1.6-1.1-2.9-2.4-3.6l-1.8-.5c2.3,0,3.7-1.4,4.3-3.6s-.2-.5.3-.4Z"/><path class="cls-1" d="M720.8,45.9c-1.4,1.4-4.4,0-3.5-2.2,1.1-3.1,6-.3,3.5,2.2Z"/><path class="cls-1" d="M986.7,41.6c-1.1,1.6-2.5,2.3-4.2,2.5-4.8.6-8.5-1.9-9.8-6.5-.9-3.3-.7-6.5,1-9.4,1.5-2.5,3.8-3.8,6.6-4,2.1-.1,4,.2,5.7,1.5.4.3.7.6,1,1,0-.6,0-1.2,0-1.7,0-.3.1-.4.4-.4,1.3,0,2.6,0,3.8,0,.3,0,.4.1.4.4,0,6.3,0,12.5,0,18.8,0,4.1-2.4,7.2-6.4,8.3-3.6,1.1-7.2.9-10.7-.7-.4-.2-.5-.4-.3-.8.4-1,.8-1.9,1.2-2.9.1-.3.2-.3.5-.2,1.8.8,3.6,1.2,5.6,1.1.6,0,1.2-.1,1.8-.3,2.1-.6,3.2-2,3.4-4.2,0-.8,0-1.6,0-2.6ZM986.9,34.4c0-.8,0-1.4-.1-2-.4-2.3-1.6-3.6-3.8-4-2.1-.3-3.9.4-4.9,2.1-1.3,2.2-1,5.9.5,7.8,1.2,1.5,2.9,1.9,4.7,1.6,1.7-.3,2.7-1.5,3.2-3.1.3-.9.4-1.7.3-2.5Z"/><path class="cls-1" d="M942.5,35.6c-2.1,0-4.2,0-6.3,0-.5,0-.5.1-.5.6.6,3.1,3.4,5.1,6.7,4.6,1.7-.2,3.3-.8,4.7-1.9.3-.2.4-.2.5.1.5.9,1,1.8,1.5,2.7.2.3.1.5-.2.7-2,1.5-4.3,2.3-6.8,2.5-2.4.1-4.8-.2-6.9-1.5-2.7-1.6-4.3-4.1-4.7-7.2-.4-3,.1-5.9,2.1-8.4,1.7-2.2,4-3.3,6.7-3.6,2.3-.2,4.4,0,6.4,1.4,2.2,1.5,3.3,3.7,3.7,6.3.2,1,.1,2.1,0,3.1,0,.4-.2.5-.6.5-2.1,0-4.3,0-6.4,0ZM940.1,32.3c1.3,0,2.7,0,4,0,.2,0,.4,0,.4-.3,0-1.7-1.1-3.2-2.7-3.7-2-.6-5,0-5.9,3.5-.1.4,0,.6.4.6,1.3,0,2.6,0,3.8,0Z"/><path class="cls-1" d="M909.1,34.1c0-6,4.4-10.6,10.3-11.1,3-.2,5.8.3,8.3,2.1,1.1.8,1.1.8.4,2-.4.7-.9,1.4-1.3,2.1-.2.4-.4.5-.8.2-1.8-1.5-4-2.2-6.3-1.8-2.9.4-4.9,2.6-5.2,5.6-.5,3.5,1.8,6.7,5.3,7.3,2.4.4,4.5-.4,6.5-1.7,0,0,.1,0,.2-.1.3-.2.6-.6.8-.6.3,0,.4.6.6.9.4.8.8,1.6,1.3,2.3.2.3.1.5-.1.7-2.6,2.3-5.7,3.3-9.2,3.1-2.4-.1-4.6-.8-6.5-2.2-2.7-2-4.2-5.2-4.2-8.7Z"/><path class="cls-1" d="M957.8,27.7c0,3.3,0,6.5,0,9.8,0,.4,0,.7,0,1.1.2,1.3.7,1.8,2,1.8.6,0,.7.1.7.7,0,1.1,0,2.1,0,3.2,0,.3,0,.4-.4.5-1.3.1-2.5.2-3.8-.2-2.1-.6-3.1-2.2-3.4-4.3-.1-.6-.1-1.2-.1-1.9,0-7,0-14,0-20.9,0-.5.2-.6.7-.6,1.3,0,2.5,0,3.8,0,.4,0,.5.1.5.5,0,3.4,0,6.9,0,10.3Z"/><path class="cls-1" d="M968.7,34.8c0,3.1,0,6.3,0,9.4,0,.4,0,.6-.5.5-1.3,0-2.7,0-4,0-.4,0-.4-.1-.4-.5,0-6.3,0-12.7,0-19,0-.4,0-.5.5-.5,1.3,0,2.7,0,4,0,.4,0,.5.1.5.5,0,3.2,0,6.4,0,9.5Z"/><path class="cls-1" d="M1014.3,40.4c-.9,1.4-2.1,2.4-3.4,3.2-4.5,2.7-10.3,1.7-13.6-2.3-.2-.3-.3-.5-.1-.9.3-.6.6-1.1.8-1.7.1-.2.2-.3.5-.3.8,0,1.6.1,2.4.2.2,0,.4.1.6.3,2.7,2.3,6.2,2.1,8.5-.5.3-.3.4-.2.5,0,.3.6.6,1.2.8,1.8.1.3.3.4.6.4.7,0,1.5-.1,2.4-.2Z"/><path class="cls-1" d="M1000,36.8c-.8,0-1.6-.1-2.4-.2-.3,0-.5,0-.6.3-.3.7-.7,1.4-1,2.2-.6-1.1-.9-2.2-1-3.3-.7-5.5,2.9-10.6,8.4-11.8.6-.1,1,0,1.3.6.2.5.6.9.9,1.3.2.2.2.4,0,.6-.5.7-.9,1.3-1.4,2-.1.2-.2.3-.4.3-3.2.9-5,4.5-3.8,7.8,0,0,0,.1,0,.2Z"/><path class="cls-1" d="M1006.4,23.9c1.9.2,3.5.7,4.9,1.7,4.2,2.7,6,8,4.2,12.6-.1.4-.3.6-.8.6-.6,0-1.2,0-1.9.1-.2,0-.4,0-.5-.3-.3-.7-.7-1.4-1-2.2-.1-.2-.1-.4,0-.6.7-3.4-1.2-6.2-4.6-7.1-.3,0-.4-.1-.2-.4.3-.4.6-.8.8-1.2q.6-.8,0-1.7c-.3-.5-.6-.9-1-1.5Z"/><path class="cls-1" d="M966.3,21.3c-.7,0-1.4,0-2,0-.3,0-.4,0-.4-.4,0-1.2,0-2.5,0-3.7,0-.3,0-.4.4-.4,1.4,0,2.8,0,4.3,0,.3,0,.3.1.3.3,0,1.2,0,2.5,0,3.7,0,.3-.1.4-.4.4-.7,0-1.4,0-2.1,0Z"/><path class="cls-1" d="M1184.6,23c0-.1,0-.3,0-.4.4-.8.1-1.6.4-2.4,1-1,0-2.1,0-3.2v3.2c-.3-.2,0-.6-.4-.8,0-.3,0-.5,0-.8.4-.4.2-.9.2-1.3.1-1.2-.2-2.5.2-3.7,0,.1.2.2.3,0,0-.1,0-.3,0-.5.2,0,.4,0,.6,0,.2.7.7.4,1.1.4,9.5,0,19,0,28.5,0,.4,0,.7.1,1-.2.4,0,.8,0,1.2,0,.3.3.7.3,1,0,.3,0,.6,0,1,0,.6-.1.9,0,.8.7-.3,0-.7-.1-.7.3,0,.5.5.3.7.3,0,2.2,0,4.5,0,6.7,0,.3.1.7-.2.9-1.4,1-3,.6-4.6.6-10.1,0-20.2,0-30.3,0h0c0-.2.1-.5-.2-.7-.3.2-.2.5-.2.7,0,.2-.2.2-.4.2ZM1186.8,14.9c0,0,0,.1,0,.2h0c-.2,0-.4.2-.6.2-.1.3-.8.7,0,1,0,1.2.2,2.4,0,3.6q-.5,1.2.6,1.2c.3,0,.6,0,.8-.2.2,0,.4,0,.6,0,9.7,0,19.5,0,29.2,0,.2,0,.4,0,.6,0,0,0,.1,0,.2,0,.2-.2.2-.5.2-.7,0-1.7,0-3.4,0-5.2-.3-.7-.9-.6-1.4-.6-9.1,0-18.2,0-27.2,0-1,0-1.9,0-2.9.2,0-.3,0-.6-.4-.7-.2,0-.4,0-.4.2,0,.4.2.5.5.6,0,0,.1,0,.2,0h0ZM1219.4,20c.5.3.6,0,.6-.5,0-.4,0-.8-.6-.8-.5,0-.6.3-.6.7,0,.4,0,.8.6.6ZM1220,21.2c0-.2,0-.4-.3-.3-.2,0-.4,0-.4.3,0,.2.2.3.4.3.2,0,.3-.1.3-.3ZM1219.3,15.3c-.1,0-.3.1-.3.2,0,.2.1.2.2.2.1,0,.3,0,.3-.2,0,0-.1-.1-.2-.2ZM1185.3,21.1c0,0-.1,0-.2,0,0,0,0,.1,0,.2,0,0,.1,0,.2,0,0,0,0-.1,0-.2Z"/><path class="cls-1" d="M1231.3,36.9c0,0,0-.1,0-.2,0-2.2,0-2.2-2.3-2-.3,0-.5.1-.5.5,0,.9,0,1.7,0,2.6,0,.6.3.9.9.8.4,0,.8-.1.7.5,0,.5.3,1.2-.6,1.3-2,.4-3.2-.5-3.2-2.6,0-.7,0-1.4,0-2.1,0-.6.2-1.1-.8-1.1-.6,0-.3-.6-.4-1,0-.3-.2-.8.3-.8.9,0,.9-.5.8-1.1-.1-.9.3-1,1.1-1,.7,0,1.4,0,1.2,1-.2.8.2,1.2,1,1,.1,0,.3,0,.4,0,1.3,0,1.4,0,1.3-1.3,0-.8.4-.8.9-.7.5,0,1.4-.5,1.3.7,0,.9,0,1.5,1.2,1.3.8,0,.3.7.4,1.1,0,.4,0,.8-.5.7-1.1-.2-1.2.4-1.1,1.2,0,.4,0,.9,0,1.3,0,.9.1,1.6,1.2,1.4.6,0,.4.4.4.6,0,.5.2,1.1-.6,1.2-2,.4-3.2-.5-3.2-2.6,0-.3,0-.7,0-1h0Z"/><path class="cls-1" d="M1184.5,35.1c0-1.5,0-2.9,0-4.4,0-.6,0-.8.8-.8,1.8,0,1.4-.2,1.5,1.5,0,.9-.4,2,.2,2.5.5.5,1.6.1,2.4.1,1.4,0,1.4,0,1.4-1.4,0-.5,0-.9,0-1.4,0-.4-.2-1,.2-1.2.5-.2,1.2,0,1.8,0,.3,0,.3.3.3.6,0,3.1,0,6.2,0,9.2,0,.4-.1.6-.6.6-.2,0-.5,0-.7,0-.8.1-1.1-.1-1-.9,0-.9,0-1.7,0-2.6,0-.6-.1-.8-.7-.7-1.1,0-2.5-.3-3.1.2-.7.6-.1,2-.2,3.1,0,.3.2.9-.2,1-.6.1-1.3,0-1.9,0-.2,0-.1-.4-.1-.6,0-1.5,0-3,0-4.5h0Z"/><path class="cls-1" d="M1209.3,36.9c.3-1.1.7-2.3,1-3.4,0-.3.1-.5.5-.5.6,0,1.1-.2,1.7.1.2,0,0,.3,0,.4-.6,2-1.3,4.1-1.9,6.1-.3,1-1,.7-1.6.7-.6,0-.8-.2-.9-.8-.3-1-.4-2.1-1-3.2-.3,1.2-.6,2.2-.8,3.2-.1.5-.2,1-1,.9-.6,0-1.3.2-1.6-.8-.5-2-1.2-3.9-1.8-5.8-.2-.7,0-.8.6-.9,1.2-.1,1.6.4,1.8,1.4.2.9.5,1.7.9,2.6.3-1,.5-1.9.8-2.9.3-1.1.8-1.4,1.9-1.1.4,0,.3.4.4.6.3,1.1.6,2.2.9,3.3,0,0,.1,0,.2,0Z"/><path class="cls-1" d="M1238.9,35.1c0-1.5,0-2.9,0-4.4,0-.6.1-.8.7-.7,1.4,0,2.8-.1,4.2.1,1.7.3,2.7,1.5,2.7,3.2,0,1.9-.8,3.1-2.5,3.6-.7.2-1.5.2-2.2.2-.6,0-.7.1-.7.7,0,.7,0,1.3,0,2,0,.5-.1.8-.7.7,0,0,0,0-.1,0q-1.5,0-1.5-1.4c0-1.3,0-2.5,0-3.8ZM1241.1,33.4c0,1.9-.1,1.7.9,1.7,1.6,0,2.2-.5,2.2-1.5,0-1.1-.6-1.6-2.3-1.6-1.6,0-.5,1.1-.8,1.5Z"/><path class="cls-1" d="M1288,33.5c0-1.1,0-2,0-2.8,0-.6.2-.8.7-.7.3,0,.6,0,.9,0,.5,0,.6.2.6.6,0,3.1,0,6.2,0,9.3,0,.3,0,.6-.4.5-.6-.2-1.3.4-1.8-.4,0-.2-.2,0-.3,0-2.9,1.1-4.8-.2-4.9-3.2,0-2,1-3.6,2.6-3.9.9-.2,1.8,0,2.7.7ZM1288,36.7c0-1.4-.4-2-1.4-2-1,0-1.6.8-1.6,1.9,0,1.1.6,1.9,1.6,2,1,0,1.4-.6,1.4-1.9Z"/><path class="cls-1" d="M1268.9,33c-.8,1-1.5,2-2.3,2.9-.3.4-.3.6,0,.9.7,1,1.3,1.9,2,2.9.3.5.2.5-.3.6-1.7.4-2.4-.7-3.2-1.9-.2-.3-.3-.9-.7-.8-.4.1-.1.7-.2,1.1,0,0,0,.1,0,.2,0,1.5-.3,1.7-1.8,1.5-.4,0-.4-.3-.4-.7,0-3,0-6,0-9.1,0-.6.3-.7.8-.7,1.7,0,1.4-.2,1.5,1.4,0,1.1,0,2.3,0,3.4,0,.2-.1.5.2.6.3,0,.4-.2.5-.4.2-.2.4-.5.5-.7.7-1.5,2.1-1.3,3.5-1.2Z"/><path class="cls-1" d="M1253.6,37.6c0,.5,0,1,0,1.5,0,.4.2,1-.2,1.1-.6.2-1.4.4-1.8,0-.4-.4-.5-.2-.8,0-.8.4-1.6.5-2.4.1-1-.4-1.6-1.2-1.5-2.2,0-1,.6-1.9,1.6-2.2.7-.2,1.4-.3,2.1-.2.3,0,.6.4.8,0,.1-.4-.2-.7-.6-.8-.8-.3-1.5,0-2.3,0-.3,0-.7.6-.8,0,0-.5-.4-1.2.3-1.6,1.1-.8,3.7-.6,4.8.3.6.5.9,1.2.9,2,0,.7,0,1.4,0,2.1,0,0,0,0,0,0ZM1250,38.9c.7,0,1.3-.4,1.3-1.1,0-.7-.7-.6-1.2-.6-.6,0-1.1.1-1.2.8,0,.7.5.9,1,.9Z"/><path class="cls-1" d="M1276,37.6c0,.4,0,.9,0,1.3,0,.5.3,1.2-.2,1.3-.6.1-1.4.5-2-.3-.3-.4-.4,0-.6.2-1.2.6-2.7.3-3.4-.7-.7-.9-.6-2.3.2-3,.9-.8,1.9-.9,3.1-.8.3,0,.6.4.8,0,.1-.3-.2-.6-.5-.8-.9-.4-1.8-.2-2.6.1-.5.2-.6.1-.6-.4-.1-1.1.3-1.5,1.3-1.7.6,0,1.1-.2,1.7-.1,2.1.2,3,1.2,3,3.3,0,.5,0,1,0,1.5ZM1272.6,37.1c-.6,0-1.2.2-1.2.9,0,.6.5.9,1,.8.7,0,1.3-.4,1.3-1.1,0-.7-.7-.6-1.2-.7Z"/><path class="cls-1" d="M1198.9,37.3c-.6,0-1.1,0-1.7,0-.2,0-.4,0-.5.1-.1.3.1.4.2.6.5.6,1.8.8,2.8.5.3-.1.7-.6.9-.1.1.5.3,1.2-.3,1.6-1.2.8-3.8.5-4.9-.6-1.2-1.2-1.5-3.4-.5-5,.8-1.4,2.4-2,4.1-1.6,1.5.4,2.6,2.4,2.2,4,0,.4-.3.4-.6.3-.6,0-1.1,0-1.7,0ZM1197.9,35.8c.4-.3,1.2.4,1.2-.5,0-.6-.5-.9-1.2-.9-.7,0-1.3.4-1.3,1,0,.7.8.1,1.2.4Z"/><path class="cls-1" d="M1222.2,37.3c-.5,0-1,0-1.5,0-.2,0-.6-.2-.7.2,0,.3.2.5.4.7.8.7,1.7.5,2.7.4.3,0,.8-.6.9-.1.2.5.4,1.3-.4,1.7-1.5.6-3,.6-4.4-.3-1.3-.9-1.7-2.2-1.4-3.7.3-2.4,2.2-3.7,4.5-3.2,1.6.4,2.8,2.5,2.3,4.1,0,.3-.3.3-.5.3-.6,0-1.2,0-1.8,0h0ZM1221.1,35.8c.4-.3,1.2.4,1.3-.4,0-.6-.5-1-1.2-.9-.7,0-1.3.4-1.3,1,0,.6.8.1,1.2.3Z"/><path class="cls-1" d="M1184.5,48.9c0-1.5,0-3,0-4.5,0-.5,0-.7.7-.7,1.7,0,3.4,0,5.1,0,.6,0,.6.2.7.7,0,.6-.3.6-.7.6-1.2,0-2.3,0-3.5,0-.2,0-.7-.1-.7.2,0,.9,0,1.8,0,2.7,0,.3.4.2.7.2,1,0,2.1,0,3.1,0,.6,0,.6.2.7.7,0,.6-.2.6-.7.6-1,0-1.9,0-2.9,0-.7,0-1,0-.9.9.1.8-.3,1.9.2,2.4.5.5,1.6.1,2.4.2.5,0,1.1,0,1.6,0,.5,0,.8,0,.8.7,0,.6-.3.6-.8.6-1.7,0-3.4,0-5,0-.6,0-.7-.2-.7-.7,0-1.5,0-3,0-4.5Z"/><path class="cls-1" d="M1219.8,53.5c0,1,0,1.8,0,2.7,0,.5,0,.8-.7.8-.6,0-.7-.2-.7-.7,0-2.9,0-5.8,0-8.6,0-.3-.2-.7.3-.7.4,0,.9-.3,1.1.2.2.6.4.2.6.1,2.4-1.2,4.5,0,4.8,2.7.3,2.4-.8,4.1-2.9,4.4-.9.1-1.6-.3-2.5-.7ZM1219.8,50.4c0,1.8.6,2.6,1.9,2.6,1.2,0,2.1-1,2.1-2.5,0-1.5-.9-2.6-2.2-2.6-1.2,0-1.8.8-1.8,2.5Z"/><path class="cls-1" d="M1260.6,38.1c.1,2.1-.2,2.5-2.1,2.4-1.6,0-3-.9-3.5-2.3-.6-1.5-.3-3.3.9-4.4,1.1-1,2.9-1.4,4.3-.8.4.2.8,1.7.5,2-.3.3-.5,0-.7-.2-.9-.3-1.8-.4-2.5.4-.6.7-.7,1.5-.3,2.3.4.9,1.4,1.2,2.4.9.3-.1.7-.3,1.1-.4Z"/><path class="cls-1" d="M1245.6,50.9c-.6,0-1.1,0-1.7,0-.8,0-.7.4-.5.8.5,1.2,1.9,1.6,3.5,1.1.2,0,.6-.7.8,0,.1.4.1.9-.4,1.2-2,1.1-4.8,0-5.4-2.3-.6-2.3.7-4.6,2.9-4.9,2.1-.3,4.1,2,3.5,3.9-.1.4-.4.3-.6.3-.6,0-1.3,0-1.9,0ZM1245,49.7c.4,0,.7,0,1.1,0,.7,0,.8-.2.6-.8-.3-.6-.7-1-1.4-1.1-.7,0-1.2.2-1.6.8-.2.3-.5.6-.3,1,.2.3.5,0,.8.1.3,0,.5,0,.8,0Z"/><path class="cls-1" d="M1209.1,50.9c-.6,0-1.2,0-1.8,0-.6,0-.6.2-.5.7.4,1.2,1.8,1.7,3.4,1.2.3,0,.7-.8.9,0,.2.6,0,1.1-.8,1.3-1.5.4-2.9.4-4.1-.7-1.2-1.1-1.3-2.7-.9-4.2.5-2,2.2-2.9,4.1-2.4,1.4.4,2.6,2.4,2.2,3.8-.1.4-.4.3-.6.3-.6,0-1.3,0-1.9,0ZM1208.5,49.7c.4,0,.7,0,1.1,0,.8,0,.8-.3.5-.8-.6-1.2-1.9-1.4-2.8-.5-.3.3-.7.7-.5,1.1.2.4.7.1,1,.2.2,0,.5,0,.7,0Z"/><path class="cls-1" d="M1215.9,34.3c0,1.2,0,2.3,0,3.5,0,.3,0,.8.5.8,1.2,0,.5.8.6,1.3.1.7-.5.6-.9.6-1.6,0-2.4-.6-2.4-2.2,0-2.5,0-5.1,0-7.6,0-.6.3-.7.8-.7,1.5,0,1.5,0,1.5,1.4,0,1,0,1.9,0,2.9Z"/><path class="cls-1" d="M1194,47.6c.9-.8,1.8-1.2,2.8-1,1.2.3,1.7.9,1.9,2,.2,1.6,0,3.2.1,4.8,0,.6-.3.5-.7.5-.4,0-.7,0-.7-.5,0-1.2,0-2.5,0-3.7,0-1.3-.5-1.9-1.6-1.9-1.1,0-1.8.8-1.8,1.9,0,1.2,0,2.3,0,3.5,0,.6-.2.7-.8.7-.6,0-.7-.2-.7-.7,0-1.9,0-3.8,0-5.7,0-.3-.3-.9.4-.9.5,0,1.2-.3.9.9Z"/><path class="cls-1" d="M1235.3,52.3c.9.5,1.7.9,2.6.8.5,0,1.1-.2,1.2-.8,0-.6-.5-.8-1-1-.5-.2-1.1-.4-1.6-.6-.9-.3-1.3-1-1.3-1.9,0-1,.6-1.6,1.5-1.9.9-.3,1.9-.2,2.8,0,.9.3.6.9.5,1.6-.8-.4-1.5-.8-2.3-.7-.5,0-1,.2-1.1.7-.2.6.4.8.8,1,.6.2,1.2.4,1.8.7.9.4,1.3,1,1.3,2,0,1-.7,1.5-1.6,1.8-1,.4-2,.2-3,0-.9-.2-.9-.9-.7-1.7Z"/><path class="cls-1" d="M1279.8,33.7c.2-.2.4-.4.6-.5.5-.3,1.2-.5,1.6-.1.5.5.2,1.2.1,1.8,0,.3-.4.1-.6.1-1.2-.1-1.8.4-1.8,1.6,0,1,0,1.9,0,2.9,0,.7-.1.9-.9.9-1.4,0-1.4,0-1.4-1.4,0-1.7,0-3.3,0-5,0-.3-.3-.9.4-1,1.1-.2,1.6,0,1.9.8Z"/><path class="cls-1" d="M1201.1,50.4c0-.5,0-.9,0-1.4,0-.6,0-1.2-.8-1-.4,0-.4-.3-.4-.6,0-.3,0-.7.4-.6.9.2.8-.4.8-1,0-.4-.2-.9.5-.9.6,0,1,0,.9.8-.2.9.1,1.3,1.1,1.1.4,0,.8,0,.8.6,0,.6-.2.8-.8.7-.9-.2-1.2.2-1.1,1.1,0,.8,0,1.7,0,2.5,0,.9.4,1.4,1.3,1.3.3,0,.5,0,.5.4,0,.3.1.7-.4.9-1.3.4-2.8-.5-2.8-1.9,0-.6,0-1.3,0-1.9,0,0,0,0,0,0Z"/><path class="cls-1" d="M1184.6,23c.2,0,.3,0,.4-.2.1,0,.3,0,.4,0,0,0,0,0,0,0,.2.2.5.2.7.2,11.1,0,22.2,0,33.3,0,.6,0,.9-.2.8-.8.3-.3.2-.6.2-.9,0-2.2,0-4.5,0-6.7,0-.2,0-.4,0-.6,0-.6-.3-.8-.8-.7-.3,0-.6,0-1,0-.3,0-.7,0-1,0-.4,0-.8,0-1.2,0-9.9-.3-19.8-.3-29.8,0,0-.2-.2-.2-.4-.2-.1,0-.3,0-.4,0-.2,0-.4,0-.6,0,0,0-.1,0-.2,0,0,0,0,0,0,0,0,0,0,0,0,.1,0,0,0,.1,0,.2-.4,1.2,0,2.5-.2,3.7,0,.4.2.9-.2,1.3,0-1.7,0-3.4,0-5.1,0-.4.1-.6.6-.6.6,0,1.2,0,1.8,0,10.9,0,21.8,0,32.7,0,.9,0,1.1.2,1.1,1.1,0,2.8,0,5.6,0,8.4,0,.7-.2.9-.8.8-11.5,0-23,0-34.5,0-.3,0-.6.2-.8-.2Z"/><path class="cls-1" d="M1228.3,47.5c.4-.6.9-.8,1.5-.9.5,0,.9-.2.9.6,0,.6,0,.9-.8.8-1-.1-1.7.6-1.7,1.6,0,1.2,0,2.5,0,3.7,0,.6-.3.7-.8.7-.5,0-.7-.1-.7-.7,0-1.9,0-3.9,0-5.8,0-.4-.2-.9.5-.8.5,0,1.1-.1,1,.8Z"/><path class="cls-1" d="M1214.8,47.6c.5-.5.9-.9,1.4-.9.4,0,1-.3,1.1.5,0,.7-.2.9-.9.9-1,0-1.6.6-1.6,1.6,0,1.2,0,2.3,0,3.5,0,.6,0,.9-.8.9-.7,0-.7-.3-.7-.9,0-1.9,0-3.8,0-5.6,0-.3-.2-.8.4-.8.5,0,1.2-.3,1.1.8Z"/><path class="cls-1" d="M1232,50.4c0-1,0-2,0-3,0-.5.2-.6.7-.6.4,0,.8,0,.8.6,0,2.1,0,4.1,0,6.2,0,.7-.5.5-.8.5-.5,0-.7-.1-.6-.6,0-1,0-2.1,0-3.1Z"/><path class="cls-1" d="M1233.6,44.7c0,.5-.3.8-.9.8-.6,0-.9-.4-.9-.9,0-.5.3-.8.8-.8.5,0,.9.3.9.9Z"/><path class="cls-1" d="M1185,20.2c-.3.8,0,1.6-.4,2.4,0-1.1,0-2.1,0-3.2.3.2,0,.6.4.8h0Z"/><path class="cls-1" d="M1218.4,15.1c-9.9,0-19.8,0-29.7,0-.5,0-1,0-1.5,0-.1,0-.2,0-.4,0,0,0,0,0,0,0,0,0,0-.1,0-.2,1-.2,1.9-.2,2.9-.2,9.1,0,18.2,0,27.2,0,.5,0,1.2-.2,1.4.6Z"/><path class="cls-1" d="M1186.6,13.3c9.9-.3,19.8-.3,29.8,0-.3.3-.7.2-1,.2-9.5,0-19,0-28.5,0-.4,0-.9.3-1.1-.4.1,0,.3,0,.4,0,0,.2.2.2.4.2Z"/><path class="cls-1" d="M1220.2,22.2c0,.6-.2.8-.8.8-11.1,0-22.2,0-33.3,0-.3,0-.5,0-.7-.2,10.1,0,20.2,0,30.3,0,1.5,0,3.1.4,4.6-.6Z"/><path class="cls-1" d="M1186.8,15.1c0,1.6,0,3.2,0,4.8,0,.7.2,1,.8,1.1-.2.3-.5.1-.8.2-.2-.4-.4-.8-.6-1.2.2-1.2,0-2.4,0-3.6,0-.3,0-.7,0-1,.2,0,.4-.1.6-.2Z"/><path class="cls-1" d="M1219.4,20c-.7.2-.6-.2-.6-.6,0-.4,0-.7.6-.7.6,0,.6.3.6.8,0,.5-.1.7-.6.5Z"/><path class="cls-1" d="M1185,20.2v-3.2c0,1.1,1,2.1,0,3.2,0,0,0,0,0,0Z"/><path class="cls-1" d="M1186.2,20c.2.4.4.8.6,1.2q-1.1,0-.6-1.2Z"/><path class="cls-1" d="M1186.8,14.7c0,0,0,.1,0,.2,0,0-.1,0-.2,0-.3-.1-.5-.3-.5-.6,0-.2.2-.3.4-.2.4.1.3.4.4.7Z"/><path class="cls-1" d="M1220.4,13.9c0,.2,0,.4,0,.6-.3,0-.8.2-.7-.3,0-.4.5-.2.7-.3Z"/><path class="cls-1" d="M1220,21.2c0,.2,0,.3-.3.3-.2,0-.4,0-.4-.3,0-.2.3-.3.4-.3.2,0,.3.1.3.3Z"/><path class="cls-1" d="M1185.4,22.8c-.1,0-.3,0-.4,0,0-.2-.1-.5.2-.7.3.2.2.5.2.7Z"/><path class="cls-1" d="M1219.3,15.3c0,0,.2.2.2.2,0,.2-.2.2-.3.2-.1,0-.3,0-.2-.2,0,0,.2-.1.3-.2Z"/><path class="cls-1" d="M1186.2,15.3c0,.3,0,.7,0,1-.7-.3-.1-.7,0-1Z"/><path class="cls-1" d="M1217.6,13.3c.3,0,.7,0,1,0-.3.3-.7.3-1,0Z"/><path class="cls-1" d="M1185,13.5c0,0,0-.1,0-.2,0,0,0-.1,0-.2,0,0,.1,0,.2,0,0,.2.1.3,0,.5,0,.2-.2,0-.3,0Z"/><path class="cls-1" d="M1185.3,21.1c0,0,0,.1,0,.2,0,0-.1,0-.2,0,0,0,0-.1,0-.2,0,0,.1,0,.2,0Z"/><path class="cls-1" d="M1186.8,14.9c.1,0,.2,0,.4,0-.1,0-.3,0-.4,0,0,0,0-.1,0-.2Z"/><path class="cls-1" d="M1218,21c0,0,.1,0,.2,0,0,.1-.1.1-.2,0Z"/><path class="cls-1" d="M1186.6,13.3c-.2,0-.3,0-.4-.2.2,0,.3,0,.4.2Z"/><path class="cls-1" d="M1185,13.1c0,0,0,.1,0,.2,0,0,0,0,0-.1,0,0,0,0,0,0Z"/><path class="cls-1" d="M1480.6,24.9c0-.1-.1-.2-.3-.3-.1,0-2.4,0-2.4,0,0,0-1.9-1.8-2.1-2-.2-.2-.5-.1-.7,0,0,0-.4.1-.9.3-.1-.4-.3-.8-.5-1.1-.7-1.3-1.6-1.9-2.8-2h0c0,0-.2,0-.2,0,0,0,0,0-.1-.1-.5-.6-1.2-.8-2-.8-1.5,0-3,1.1-4.3,3.1-.9,1.4-1.5,3.1-1.7,4.5l-3,.9c-.9.3-.9.3-1,1.1,0,.6-2.4,18.5-2.4,18.5l19.4,3.4,8.4-2.1s-3.4-23.2-3.5-23.4h0ZM1473.2,23.1l-1.5.5c0-.8-.1-1.8-.5-2.8,1.2.2,1.7,1.5,2,2.3ZM1470.7,23.9l-3.2,1c.3-1.2.9-2.4,1.6-3.2.3-.3.7-.6,1.1-.8.4.9.5,2.1.5,3h0ZM1468.6,19.8c.4,0,.7,0,.9.2-.4.2-.8.5-1.2.9-1,1-1.7,2.7-2,4.2-.9.3-1.8.6-2.7.8.5-2.5,2.6-6.1,4.9-6.2h0Z"/><path class="cls-1" d="M1480.3,24.6c-.1,0-2.4,0-2.4,0,0,0-1.9-1.8-2.1-2,0,0-.2-.1-.3-.1v27.9s8.4-2.1,8.4-2.1c0,0-3.4-23.2-3.5-23.4,0-.1-.1-.2-.3-.3h0Z"/><path d="M1470.9,29l-1,3.7s-1.1-.5-2.4-.4c-1.9.1-1.9,1.3-1.9,1.6.1,1.6,4.4,2,4.6,5.8.2,3-1.6,5.1-4.2,5.2-3.1.2-4.8-1.6-4.8-1.6l.7-2.8s1.7,1.3,3.1,1.2c.9,0,1.2-.8,1.2-1.3-.1-2.1-3.6-2-3.9-5.5-.2-2.9,1.7-5.9,6-6.2,1.6-.1,2.5.3,2.5.3h0Z"/><path class="cls-1" d="M1495.1,36.6c-1-.5-1.5-1-1.5-1.6s.7-1.3,1.8-1.3,2.4.5,2.4.5l.9-2.7s-.8-.6-3.2-.6-5.6,1.9-5.6,4.6,1.1,2.7,2.5,3.5c1.2.7,1.6,1.1,1.6,1.8s-.6,1.3-1.7,1.3c-1.6,0-3.1-.8-3.1-.8l-.9,2.7s1.4.9,3.8.9c3.4,0,5.9-1.7,5.9-4.7,0-1.6-1.2-2.8-2.7-3.6h0ZM1508.7,30.9c-1.7,0-3,.8-4,2h0s1.5-7.7,1.5-7.7h-3.8l-3.7,19.5h3.8l1.3-6.7c.5-2.5,1.8-4.1,3-4.1s1.2.6,1.2,1.4,0,1.2-.2,1.7l-1.4,7.6h3.8l1.5-7.9c.2-.8.3-1.8.3-2.5,0-2.2-1.1-3.5-3.1-3.5h0ZM1520.5,30.9c-4.6,0-7.6,4.1-7.6,8.8s1.8,5.3,5.3,5.3,7.5-4,7.5-8.8-1.6-5.3-5.2-5.3h0ZM1518.6,42.1c-1.3,0-1.9-1.1-1.9-2.5,0-2.2,1.1-5.7,3.2-5.7s1.8,1.2,1.8,2.3c0,2.3-1.1,5.9-3.1,5.9h0ZM1535.4,30.9c-2.6,0-4,2.3-4,2.3h0l.2-2h-3.4c-.2,1.4-.5,3.5-.8,5.1l-2.7,14h3.8l1-5.6h0s.8.5,2.2.5c4.5,0,7.4-4.6,7.4-9.2s-1.1-4.9-3.9-4.9h0ZM1531.8,42.1c-1,0-1.6-.6-1.6-.6l.6-3.6c.4-2.4,1.7-4,3-4s1.5,1.1,1.5,2.1c0,2.5-1.5,6-3.6,6h0ZM1544.8,25.5c-1.2,0-2.2,1-2.2,2.2s.7,1.9,1.8,1.9h0c1.2,0,2.2-.8,2.2-2.2,0-1.1-.7-1.9-1.9-1.9h0ZM1539.4,44.7h3.8l2.6-13.5h-3.8l-2.6,13.5ZM1555.5,31.2h-2.7v-.6c.4-1.3,1.1-2.5,2.4-2.5.4,0,.8,0,1.2.2l.7-3s-.7-.3-2.1-.3-2.7.4-3.7,1.3c-1.3,1.1-1.9,2.7-2.2,4.3v.6h-1.9l-.6,2.9h1.8l-2,10.7h3.8l2-10.7h2.6l.5-2.9ZM1564.7,31.2s-2.4,6-3.5,9.3h0c0-1.1-.9-9.3-.9-9.3h-4l2.3,12.4c0,.3,0,.4,0,.6-.4.9-1.2,1.7-2.1,2.3-.7.5-1.5.9-2.2,1.1l1,3.2c.8-.2,2.4-.8,3.7-2.1,1.7-1.6,3.3-4.1,5-7.6l4.7-10h-4,0Z"/><path class="cls-5" d="M1727.8,42.4c-.4-.3-.8-.5-1.3-.5-2.7,0-5.7-2.6-7.2-3.9-.2-.2-.6,0-.5.4.5,1.3,1.8,3.6,4.9,5.7,1.5,1,3.4,1.4,5.4,1.7.6,0,1.2.1,1.8.2.3,0,.5-.4.2-.6-1.1-.9-2.2-1.8-3.3-2.9h0Z"/><path class="cls-4" d="M1767.1,33.4c.2.5.9.4,1-.1.4-3.2-1.3-7-3.3-9.3-2.1-2.4-5.1-4-8.3-4-3.4,0-6.3,1.7-8.6,4.1-1.2,1.2-2.2,2.5-3.1,3.9-1.8,2.5-2.5,2.9-1.4,4.2l1,1.2c.6.7,1.1,1,1.8.5,1.6-1.2,3.7-2.5,5.4-3.5,1.9-1.1,4-2.2,6.2-2.4,2.2-.2,4.5.4,6.3,1.6,1.4,1,2.5,2.3,3,3.9h0Z"/><path class="cls-3" d="M1737.8,48.1c14.5,10.5,36.3,6.9,37.9-12.6.5-6.2-2.4-14.2-10.8-17.9-4.7-2.1-10-2.1-13.9.7-.6.4-.1,1.4.6,1.1,3.8-1.5,8.7-1.1,12.7,2.2,4.9,4.2,7.2,12.4,2.7,17.8-1.5,1.8-3.5,3.1-5.8,3.4-4.1.6-8.3-.8-11.7-3-1.8-1.2-3.5-2.6-5-4.3-1.8-2-3.4-4-5-6.2-2.6-3.6-4.8-7.3-8.6-9.8-3.1-2.1-6.8-3.2-10.5-3-3.7.2-7.5,2.1-10.4,4.7-5.1,4.8-6.1,12.9-2.8,19.2,2.3,4.5,6.3,7.8,10.9,9.9.8.4,1.4-.6.9-1-4.3-3.9-8.2-10-6.8-15,.8-3.1,2.5-4.3,5.1-4.3,1.9,0,4.5,2.3,5.8,4,.5.6.9,1.2,1.4,1.8,3.4,4.3,6.6,7.6,13.5,12.3Z"/><path class="cls-4" d="M1735.3,47.9c-.2-.1-.4-.2-.5-.2-1,0-3.3,0-4.8-.2-8.1-.7-15.6-8-13.3-15.7,0-.3-.2-.6-.5-.6-2.8.7-3.7,4.5-2.7,7.8,0,0,0,0,0,0,3.7,10,15.5,17.3,24.4,12.2,0,0,.2-.1.2-.2,0,0,0,0,0,0,.4-.5.3-1.2-.2-1.5l-2.5-1.7h0Z"/><path class="cls-6" d="M1722.2,35.6c-2.3-2.9-4.4-4.4-4.4-.9,0,.6.3,1.2.9,1.5,2.2,1.3,4.2,3.4,6.5,4,.4.1.7-.4.4-.7-1.2-1.2-2.3-2.5-3.4-4h0Z"/><path class="cls-6" d="M1754,40.7c-.6-.2-.7-1-.3-1.5,1.4-1.3,2.8-2.7,4.2-3.9.8-.7,1.7-1.3,2.6-1.8.9-.6,1.9-1,2.8-1.5.6-.3,1.2-.1,1.6.4.8,1.1,2,3.2,1.4,5.3-.8,3.2-5.4,3.9-5.4,3.9,0,0-3.6.5-7-.8h0Z"/><path class="cls-5" d="M1762.1,31.1c.7-.3.6-1.3,0-1.5-1.5-.5-3.8-1.1-7.2.4-3.7,1.6-6.4,3.8-7.7,4.8-.4.3-.4.8-.1,1.2.7.8,2.1,2.1,4.2,3.1.3.2.7,0,1-.2,1.3-1.5,6.5-6.2,10-7.7Z"/><path class="cls-1" d="M1835.9,26.6c-1,0-1.9-.7-2.2-1.6h5.7l.8-1.2h-6.5c.3-1,1.1-1.6,2.2-1.6h3.9l.8-1.2h-4.8c-1.9,0-3.5,1.6-3.5,3.5s1.6,3.5,3.5,3.5h4.1l.8-1.2h-4.8ZM1819.5,27.9h4.1l.8-1.2h-4.8c-1.3,0-2.3-1-2.3-2.3s1-2.3,2.3-2.3h3.9l.8-1.2h-4.8c-1.9,0-3.5,1.6-3.5,3.5s1.6,3.5,3.5,3.5M1794.1,26.6h-3.9c-1.2,0-2.3-1-2.3-2.3s1-2.3,2.3-2.3h3.9c1.2,0,2.3,1,2.3,2.3s-1,2.3-2.3,2.3M1790.2,27.9h4c1.9,0,3.5-1.6,3.5-3.5s-1.6-3.5-3.5-3.5h-4c-1.9,0-3.5,1.6-3.5,3.5s1.6,3.5,3.5,3.5ZM1804.3,25.6c1.3,0,2.4-1.1,2.4-2.4s-1-2.4-2.4-2.4h-5.9v7h1.3v-5.7h4.4c.6,0,1.1.5,1.1,1.1s-.5,1.1-1.1,1.1h-3.8l4,3.5h1.9l-2.7-2.3h.6M1826.4,26.6v-5.7h-1.3v6.3c0,.2,0,.3.2.5.1.1.3.2.5.2h6.1l.8-1.2h-6.2ZM1810,25.4h3.6l-1.9-3-3.5,5.5h-1.6l4.2-6.6c.2-.3.5-.4.8-.4s.6.2.8.4l4.2,6.6h-1.6l-.7-1.2h-3.6l-.8-1.2h0Z"/><polygon class="cls-1" points="1796.6 45.2 1788.7 33.6 1788.7 33.6 1786.7 33.6 1786.7 48.9 1788.8 48.9 1788.8 37.2 1796.7 48.9 1796.7 48.9 1798.7 48.9 1798.7 33.6 1796.6 33.6 1796.6 45.2"/><path class="cls-1" d="M1816.7,47.1c-.1,0-.3,0-.5,0-1,0-1.4-.5-1.4-1.7v-5.9h2.3v-1.8h-2.3v-3h-1.3l-.8,3-1.9.6v1.2h1.9v5.9c0,1.2.3,2.1.8,2.7.5.6,1.4.9,2.5.9s.4,0,.6,0c.2,0,.4,0,.6,0h0v-1.9h-.1c-.1,0-.3,0-.5,0Z"/><path class="cls-1" d="M1838.6,45c-.3.7-.7,1.3-1.3,1.7-.5.4-1.1.6-1.8.6s-1.3-.2-1.7-.7c-.4-.5-.6-1.2-.6-2.1v-6.8h-2.1v6.8c0,1.4.3,2.6,1,3.3.7.8,1.7,1.2,2.9,1.2s1.6-.2,2.2-.6c.6-.3,1.1-.8,1.6-1.4l.3,1.7h1.5v-11.1h-2.1v7.2Z"/><polygon class="cls-1" points="1842.7 38.8 1843.8 39.5 1843.8 48.9 1845.9 48.9 1845.9 37.8 1842.7 37.8 1842.7 38.8"/><rect class="cls-1" x="1843.4" y="34.2" width="2.5" height="1.9"/><path class="cls-1" d="M1853.4,47.1c-.1,0-.3,0-.5,0-1,0-1.4-.5-1.4-1.7v-5.9h2.3v-1.8h-2.3v-3h-1.3l-.8,3-1.9.6v1.2h1.9v5.9c0,1.2.3,2.1.8,2.7.5.6,1.4.9,2.5.9s.4,0,.6,0c.2,0,.4,0,.6,0h0v-1.9h-.1c-.1,0-.3,0-.5,0Z"/><path class="cls-1" d="M1864.7,42.7c0-3.4-1.6-5.1-4.6-5.1s-2.8.5-3.7,1.5c-.9,1-1.3,2.3-1.3,4.2s.5,3.4,1.3,4.4c.9,1,2.2,1.5,4,1.5s1.5,0,2.1-.2c.7-.1,1.2-.3,1.6-.6h0v-1.9h-.2c-.6.3-1.1.5-1.7.6-.5.1-1.1.2-1.7.2-1.1,0-1.9-.3-2.5-.8-.5-.5-.8-1.4-.9-2.5h7.5v-1.3ZM1857.2,42.3c0-.9.3-1.7.8-2.2.5-.5,1.2-.8,2.1-.8h0c.9,0,1.6.2,2,.7.4.5.6,1.2.6,2.3h-5.5Z"/><path class="cls-1" d="M1805.5,37.6c-1.6,0-2.8.5-3.7,1.5-.9,1-1.3,2.3-1.3,4.2s.5,3.4,1.3,4.4c.9,1,2.2,1.5,4,1.5s1.5,0,2.1-.2c.7-.1,1.2-.3,1.6-.6h0v-1.9h-.2c-.6.3-1.1.5-1.7.6-.5.1-1.1.2-1.7.2-1.1,0-1.9-.3-2.5-.8-.5-.5-.8-1.4-.9-2.5h7.5v-1.3c0-3.4-1.6-5.1-4.6-5.1ZM1802.6,42.3c0-.9.3-1.7.8-2.2.5-.5,1.2-.8,2.1-.8h0c.9,0,1.6.2,2,.7.4.5.6,1.2.6,2.3h-5.5Z"/><path class="cls-1" d="M1828.7,42.3c-.6-.7-1.6-1.3-3-1.9l-1.6-.6c-1-.4-1.7-.8-2.1-1.1-.4-.3-.6-.7-.6-1.2,0-1.5,1.1-2.2,3.3-2.2s2.5.3,3.9.9h.2c0,0,0-1.9,0-1.9h0c-.5-.3-1.2-.5-1.9-.7-.7-.2-1.4-.3-2.1-.3-1.7,0-3,.4-3.9,1.1-1,.7-1.5,1.8-1.5,3s.3,1.7.9,2.4c.6.6,1.6,1.2,3,1.8l1.6.6c1,.4,1.8.8,2.1,1.2.4.4.6.8.6,1.4s-.3,1.4-.9,1.8c-.6.4-1.5.7-2.7.7s-2.8-.3-4.3-.9h-.2c0,0,0,1.9,0,1.9h0c.4.2.8.4,1.3.5.5.1,1,.3,1.6.3.6,0,1.1.1,1.7.1,1.8,0,3.1-.4,4.1-1.1,1-.8,1.5-1.9,1.5-3.3s-.3-1.8-.9-2.5Z"/></svg>